SplineFontDB: 3.0
FontName: NIka-Regular
FullName: Nika Regular
FamilyName: Nika
Weight: Regular
Copyright: Copyright (c) 2015, Saleh Souzanchi (http://soozanchi.ir|saleh.souzanchi@gmail.com), with Reserved Font Name Farboad For Font-Store.ir.\n\nThis Font Software is licensed under the SIL Open Font License, Version 1.1.\nThis license is copied below, and is also available with a FAQ at:\nhttp://scripts.sil.org/OFL\n
UComments: "2015-5-13: Created with FontForge (http://fontforge.org)"
Version: 0.0.1
ItalicAngle: 0
UnderlinePosition: 500
UnderlineWidth: 59
Ascent: 800
Descent: 500
InvalidEm: 0
sfntRevision: 0x00010000
LayerCount: 2
Layer: 0 0 "Back" 1
Layer: 1 0 "Fore" 0
PreferredKerning: 4
XUID: [1021 828 -1901974348 32649]
StyleMap: 0x0040
FSType: 8
OS2Version: 3
OS2_WeightWidthSlopeOnly: 0
OS2_UseTypoMetrics: 0
CreationTime: 1431477301
ModificationTime: 1455072471
PfmFamily: 17
TTFWeight: 400
TTFWidth: 5
LineGap: 0
VLineGap: 0
Panose: 2 0 5 3 0 0 0 0 0 0
OS2TypoAscent: 800
OS2TypoAOffset: 0
OS2TypoDescent: -500
OS2TypoDOffset: 0
OS2TypoLinegap: 0
OS2WinAscent: 1100
OS2WinAOffset: 0
OS2WinDescent: 700
OS2WinDOffset: 0
HheadAscent: 1100
HheadAOffset: 0
HheadDescent: -700
HheadDOffset: 0
OS2SubXSize: 780
OS2SubYSize: 839
OS2SubXOff: -107
OS2SubYOff: 168
OS2SupXSize: 780
OS2SupYSize: 839
OS2SupXOff: 369
OS2SupYOff: 575
OS2StrikeYSize: 59
OS2StrikeYPos: 310
OS2Vendor: 'RITA'
Lookup: 4 9 1 "'rlig' Required Ligatures in Arabic lookup 4" { "'rlig' Required Ligatures in Arabic lookup 4-1"  } ['rlig' ('DFLT' <'dflt' > 'arab' <'dflt' > ) ]
Lookup: 1 9 0 "'medi' Medial Forms in Arabic lookup 2" { "'medi' Medial Forms in Arabic lookup 2-1"  } ['medi' ('DFLT' <'dflt' > 'arab' <'dflt' > ) ]
Lookup: 1 9 0 "'init' Initial Forms in Latin lookup 0" { "'init' Initial Forms in Latin lookup 0-1"  } ['init' ('DFLT' <'dflt' > 'arab' <'dflt' > ) ]

StartChar: _.alef.isol
Encoding: 65536 -1 0
GlifName: _.alef.isol
Width: 208
VWidth: 1304
GlyphClass: 2
Flags: HMW
LayerCount: 2
Fore
SplineSet
144 0 m 1
 84 -20 l 1
 64 780 l 1
 144 800 l 1
 144 0 l 1
EndSplineSet
Colour: ffda6b
EndChar

StartChar: _.alef.fina
Encoding: 65537 -1 1
GlifName: _.alef.fina
Width: 306
VWidth: 1304
GlyphClass: 2
Flags: HMW
LayerCount: 2
Fore
SplineSet
144 800 m 1
 144 585 144 369 144 154 c 1
 162 126 220 100 306 100 c 1
 306 0 l 1
 184 0 82 31 79 170 c 2
 64 780 l 1
 144 800 l 1
EndSplineSet
Colour: ffda6b
EndChar

StartChar: _.alef_kotah.isol
Encoding: 65538 -1 2
GlifName: _.alef_kotah.isol
Width: 366
VWidth: 1304
GlyphClass: 2
Flags: HMW
LayerCount: 2
Fore
SplineSet
197 101 m 2
 302 101 l 1
 302 0 l 1
 220 0 l 1
 187 2 77 -12 71 120 c 0
 70 148 64 524 64 524 c 1
 143 556 l 1
 143 556 140 230 140 170 c 0
 140 169 140 169 140 168 c 0
 140 153 142 101 197 101 c 2
EndSplineSet
Colour: ffda6b
EndChar

StartChar: _.alef_kotah.fina
Encoding: 65539 -1 3
GlifName: _.alef_kotah.fina
Width: 139
VWidth: 1304
GlyphClass: 2
Flags: HMW
LayerCount: 2
Fore
SplineSet
73 -6 m 1
 64 527 l 1
 139 557 l 1
 137 0 l 1
 73 -6 l 1
EndSplineSet
Colour: ffda6b
EndChar

StartChar: _.beh.isol
Encoding: 65540 -1 4
GlifName: _.beh.isol
Width: 926
VWidth: 1304
GlyphClass: 2
UnlinkRmOvrlpSave: 1
Flags: HMW
LayerCount: 2
Fore
SplineSet
862 181 m 0
 862 150 854 96 832 74 c 0
 797 39 623 -5 450 -5 c 0
 257 -5 64 49 64 231 c 0
 64 278 76 334 106 400 c 1
 154 379 l 1
 135 337 126 301 126 270 c 0
 126 139 282 96 452 96 c 0
 573 96 701 118 786 145 c 1
 782 200 765 271 727 356 c 1
 795 429 l 1
 838 332 862 249 862 181 c 0
EndSplineSet
Colour: ffda6b
EndChar

StartChar: _.beh.fina
Encoding: 65541 -1 5
GlifName: _.beh.fina
Width: 1032
VWidth: 1304
GlyphClass: 2
UnlinkRmOvrlpSave: 1
Flags: HMW
LayerCount: 2
Fore
SplineSet
1032 0 m 1
 986 0 882 5 829 70 c 1
 786 35 618 -5 451 -5 c 0
 257 -5 64 50 64 231 c 0
 64 278 77 334 107 400 c 1
 155 379 l 1
 136 338 127 302 127 271 c 0
 127 140 283 96 453 96 c 0
 574 96 702 118 788 146 c 1
 788 146 792 148 797 150 c 1
 767 292 l 1
 835 317 l 1
 845 270 854 223 865 177 c 0
 879 113 963 100 1032 100 c 1
 1032 0 l 1
EndSplineSet
Colour: ffda6b
EndChar

StartChar: _.beh.medi
Encoding: 65542 -1 6
GlifName: _.beh.medi
Width: 395
VWidth: 1304
GlyphClass: 2
UnlinkRmOvrlpSave: 1
Flags: HMW
LayerCount: 2
Fore
SplineSet
-1 100 m 0
 77 100 127 116 155 141 c 1
 155 320 l 1
 230 340 l 1
 230 150 l 1
 256 120 309 100 395 100 c 1
 394 0 l 1
 312 0 241 23 200 70 c 1
 159 23 81 0 0 0 c 2
 -1 0 l 1
 -26 1 -50 24 -50 50 c 0
 -50 75 -26 100 -1 100 c 0
EndSplineSet
Colour: ffda6b
EndChar

StartChar: _.beh.init
Encoding: 65543 -1 7
GlifName: _.beh.init
Width: 334
VWidth: 1197
GlyphClass: 1
UnlinkRmOvrlpSave: 1
Flags: HMW
LayerCount: 2
Fore
SplineSet
177 26 m 0
 178 26 l 0
 232 51 270 92 270 150 c 2
 270 170 l 2
 270 173 270 176 270 179 c 0
 270 247 245 331 203 429 c 1
 135 356 l 1
 173 272 189 203 194 149 c 1
 168 121 123 100 39 100 c 2
 -1 100 l 1
 -1 0 l 1
 39 0 l 1
 39 0 l 1
 89 0 138 9 177 26 c 0
-1 100 m 1
 -1 0 l 1
 -25 0 -50 24 -50 49 c 0
 -50 76 -27 100 -1 100 c 1
EndSplineSet
Colour: ffda6b
EndChar

StartChar: _.heh.isol
Encoding: 65544 -1 8
GlifName: _.heh.isol
Width: 721
VWidth: 1304
GlyphClass: 1
UnlinkRmOvrlpSave: 1
Flags: HMW
LayerCount: 2
Fore
SplineSet
156 -134 m 0
 156 -267 295 -312 462 -312 c 0
 521 -312 583 -306 644 -297 c 1
 614 -374 l 1
 539 -396 467 -407 401 -407 c 0
 225 -407 96 -329 96 -160 c 0
 96 -141 98 -121 101 -100 c 0
 126 53 244 185 410 253 c 1
 314 290 231 335 185 335 c 1
 185 335 163 334 149 312 c 1
 149 312 134 286 116 244 c 1
 64 257 l 1
 64 257 85 316 108 362 c 0
 110 366 145 431 201 431 c 0
 202 431 203 431 204 431 c 0
 320 425 443 314 639 300 c 0
 645 300 651 301 657 301 c 1
 657 300 l 1
 623 205 l 1
 611 205 l 1
 445 201 195 55 159 -100 c 0
 156 -112 156 -123 156 -134 c 0
EndSplineSet
Colour: ffda6b
EndChar

StartChar: _.heh.fina
Encoding: 65545 -1 9
GlifName: _.heh.fina
Width: 725
VWidth: 1304
GlyphClass: 1
UnlinkRmOvrlpSave: 1
Flags: HMW
LayerCount: 2
Fore
SplineSet
502 187 m 2
 511 189 519 192 528 194 c 2
 502 187 l 2
156 -134 m 0
 156 -267 295 -312 462 -312 c 0
 521 -312 583 -306 644 -297 c 1
 614 -374 l 1
 539 -396 467 -407 401 -407 c 0
 225 -407 96 -329 96 -160 c 0
 96 -141 98 -121 101 -100 c 0
 126 53 244 185 410 253 c 1
 314 290 231 335 185 335 c 1
 185 335 163 334 149 312 c 1
 149 312 134 286 116 244 c 1
 64 257 l 1
 64 257 85 316 108 362 c 0
 110 366 145 431 201 431 c 0
 202 431 203 431 204 431 c 0
 320 425 443 314 639 300 c 0
 645 300 651 301 657 301 c 1
 657 300 l 1
 623 205 l 1
 611 205 l 1
 585 204 556 200 528 194 c 1
 528 192 528 190 528 188 c 0
 528 119 611 100 676 100 c 2
 725 100 l 1
 725 0 l 1
 691 0 l 2
 547 0 459 72 458 172 c 1
 321 119 185 12 159 -100 c 0
 156 -112 156 -123 156 -134 c 0
EndSplineSet
Colour: ffda6b
EndChar

StartChar: _.heh.medi
Encoding: 65546 -1 10
GlifName: _.heh.medi
Width: 802
VWidth: 1304
GlyphClass: 1
UnlinkRmOvrlpSave: 1
Flags: HMW
LayerCount: 2
Fore
SplineSet
1 100 m 2
 107 100 l 2
 276 100 377 174 473 232 c 1
 354 271 247 335 192 335 c 1
 192 335 170 334 156 312 c 1
 156 312 141 286 123 244 c 1
 71 257 l 1
 71 257 92 316 115 362 c 0
 117 366 152 431 208 431 c 0
 209 431 210 431 211 431 c 0
 330 425 457 307 664 300 c 1
 630 205 l 1
 620 205 610 206 600 207 c 0
 578 202 556 193 534 182 c 1
 543 120 621 100 683 100 c 2
 802 100 l 1
 802 0 l 1
 698 0 l 2
 569 0 485 57 467 141 c 1
 377 79 272 0 105 0 c 0
 70 0 36 0 1 0 c 0
 -24 0 -50 24 -50 50 c 0
 -49 76 -24 100 1 100 c 2
EndSplineSet
Colour: ffda6b
EndChar

StartChar: _.heh.init
Encoding: 65547 -1 11
GlifName: _.heh.init
Width: 728
VWidth: 1304
GlyphClass: 1
UnlinkRmOvrlpSave: 1
Flags: HMW
LayerCount: 2
Fore
SplineSet
105 0 m 2
 1 0 l 2
 -24 0 -50 24 -50 50 c 0
 -49 76 -24 100 1 100 c 2
 107 100 l 2
 276 100 377 174 473 232 c 1
 354 271 247 335 192 335 c 1
 192 335 170 334 156 312 c 1
 156 312 141 286 123 244 c 1
 71 257 l 1
 71 257 92 316 115 362 c 0
 117 366 152 431 208 431 c 0
 209 431 210 431 211 431 c 0
 330 425 457 307 664 300 c 1
 630 205 l 1
 620 205 610 206 600 207 c 0
 467 182 357 0 105 0 c 2
EndSplineSet
Colour: ffda6b
EndChar

StartChar: _.sin.isol
Encoding: 65548 -1 12
GlifName: _.sin.isol
Width: 1253
VWidth: 1304
GlyphClass: 1
UnlinkRmOvrlpSave: 1
Flags: HMW
LayerCount: 2
Fore
SplineSet
655 20 m 1
 656 0 659 -19 659 -39 c 0
 659 -158 491 -270 308 -270 c 0
 118 -270 64 -168 64 -40 c 0
 64 36 83 121 105 199 c 1
 154 187 l 1
 137 122 126 61 126 8 c 0
 126 -99 173 -170 316 -170 c 0
 427 -170 560 -117 601 -70 c 1
 547 235 l 1
 617 284 l 1
 623 237 631 192 638 145 c 1
 653 123 688 100 738 100 c 0
 739 100 741 99 742 99 c 0
 791 99 855 121 855 160 c 2
 855 272 l 1
 930 289 l 1
 930 161 l 1
 944 124 977 102 1017 100 c 0
 1066 97 1114 116 1125 141 c 1
 1078 317 l 1
 1148 370 l 1
 1162 317 1178 245 1187 180 c 0
 1188 173 1189 166 1189 160 c 0
 1189 63 1085 -2 1017 0 c 0
 966 2 917 25 889 68 c 1
 867 19 800 0 737 0 c 0
 706 0 678 8 655 20 c 1
EndSplineSet
Colour: ffda6b
EndChar

StartChar: _.sin.fina
Encoding: 65549 -1 13
GlifName: _.sin.fina
Width: 1349
VWidth: 1304
GlyphClass: 1
UnlinkRmOvrlpSave: 1
Flags: HMW
LayerCount: 2
Fore
SplineSet
655 20 m 1
 656 0 659 -19 659 -39 c 0
 659 -158 491 -270 308 -270 c 0
 118 -270 64 -168 64 -40 c 0
 64 36 83 121 105 199 c 1
 154 187 l 1
 137 122 126 61 126 8 c 0
 126 -99 173 -170 316 -170 c 0
 427 -170 560 -117 601 -70 c 1
 547 235 l 1
 617 284 l 1
 623 237 631 192 638 145 c 1
 653 123 688 100 738 100 c 0
 739 100 741 99 742 99 c 0
 791 99 855 121 855 160 c 2
 855 272 l 1
 930 289 l 1
 930 161 l 1
 944 124 977 102 1017 100 c 0
 1065 98 1100 122 1115 144 c 1
 1084 292 l 1
 1152 317 l 1
 1181 177 l 2
 1195 113 1281 100 1349 100 c 1
 1349 0 l 1
 1306 0 1209 3 1154 60 c 1
 1128 29 1080 1 1017 0 c 1
 1015 0 l 1
 965 4 916 27 889 68 c 1
 867 19 800 0 737 0 c 0
 706 0 678 8 655 20 c 1
EndSplineSet
Colour: ffda6b
EndChar

StartChar: _.sin.medi
Encoding: 65550 -1 14
GlifName: _.sin.medi
Width: 1003
VWidth: 1304
GlyphClass: 1
UnlinkRmOvrlpSave: 1
Flags: HMW
LayerCount: 2
Fore
SplineSet
391 0 m 0
 325 0 255 20 201 70 c 1
 160 26 95 4 0 0 c 0
 -25 -1 -50 24 -50 50 c 0
 -49 76 -26 100 -1 100 c 0
 62 101 129 109 157 143 c 0
 196 190 238 292 244 309 c 1
 307 282 l 1
 285 227 265 183 248 150 c 1
 279 119 335 100 392 100 c 0
 393 100 395 99 396 99 c 0
 445 99 509 121 509 160 c 2
 509 272 l 1
 584 289 l 1
 584 161 l 1
 598 124 631 102 671 100 c 0
 719 98 754 122 769 144 c 1
 738 292 l 1
 806 317 l 1
 835 177 l 2
 849 113 935 100 1003 100 c 1
 1003 0 l 1
 960 0 863 3 808 60 c 1
 782 29 734 1 671 0 c 1
 669 0 l 1
 619 4 570 27 543 68 c 1
 521 19 454 0 391 0 c 0
EndSplineSet
Colour: ffda6b
EndChar

StartChar: _.sin.init
Encoding: 65551 -1 15
GlifName: _.sin.init
Width: 905
VWidth: 1304
GlyphClass: 1
UnlinkRmOvrlpSave: 1
Flags: HMW
LayerCount: 2
Fore
SplineSet
396 99 m 0
 445 99 509 121 509 160 c 2
 509 272 l 1
 584 289 l 1
 584 161 l 1
 598 124 631 102 671 100 c 0
 720 97 768 116 779 141 c 1
 779 156 747 258 732 317 c 1
 802 370 l 1
 816 317 841 245 841 177 c 0
 841 69 763 0 671 0 c 0
 633 0 570 26 543 68 c 1
 521 19 454 0 391 0 c 0
 325 0 255 20 201 70 c 1
 160 26 95 4 0 0 c 0
 -25 -1 -50 24 -50 50 c 0
 -49 75 -26 100 -1 100 c 0
 62 101 129 109 157 143 c 0
 196 190 238 292 244 309 c 1
 290 282 l 1
 269 228 259 184 247 151 c 1
 277 119 334 100 392 100 c 0
 393 100 395 99 396 99 c 0
EndSplineSet
Colour: ffda6b
EndChar

StartChar: _.sad.isol
Encoding: 65552 -1 16
GlifName: _.sad.isol
Width: 1332
VWidth: 1304
GlyphClass: 1
UnlinkRmOvrlpSave: 1
Flags: HMW
LayerCount: 2
Fore
SplineSet
1065 100 m 2
 1141 100 1187 133 1214 172 c 1
 1205 235 1147 299 1061 300 c 0
 982 300 880 244 768 101 c 1
 778 101 789 100 800 100 c 2
 1065 100 l 2
650 34 m 1
 654 0 660 -34 660 -68 c 0
 660 -186 491 -301 309 -301 c 0
 119 -301 64 -199 64 -71 c 0
 64 5 84 90 106 168 c 1
 154 157 l 1
 138 92 126 31 126 -21 c 0
 126 -128 172 -200 316 -200 c 0
 427 -200 562 -147 601 -100 c 1
 546 205 l 1
 618 253 l 1
 623 219 628 185 633 151 c 1
 636 150 l 1
 650 134 673 120 706 111 c 1
 790 208 934 402 1077 402 c 0
 1174 402 1260 312 1268 214 c 0
 1268 212 1268 209 1268 207 c 0
 1268 83 1199 0 1065 0 c 2
 770 0 l 1
 769 1 l 1
 723 5 683 16 650 34 c 1
EndSplineSet
Colour: ffda6b
EndChar

StartChar: _.sad.fina
Encoding: 65553 -1 17
GlifName: _.sad.fina
Width: 1420
VWidth: 1304
GlyphClass: 1
UnlinkRmOvrlpSave: 1
Flags: HMW
LayerCount: 2
Fore
SplineSet
1065 100 m 2
 1141 100 1187 133 1214 172 c 1
 1205 235 1147 299 1061 300 c 0
 982 300 880 244 768 101 c 1
 778 101 789 100 800 100 c 2
 1065 100 l 2
1077 402 m 0
 1176 402 1268 308 1268 201 c 0
 1268 180 1266 161 1262 144 c 1
 1289 118 1340 100 1420 100 c 1
 1419 0 l 1
 1338 0 1268 24 1226 68 c 1
 1193 25 1139 0 1065 0 c 2
 770 0 l 1
 769 1 l 1
 723 5 683 16 650 34 c 1
 654 0 660 -34 660 -68 c 0
 660 -186 491 -301 309 -301 c 0
 119 -301 64 -199 64 -71 c 0
 64 5 84 90 106 168 c 1
 154 157 l 1
 138 92 126 31 126 -21 c 0
 126 -128 172 -200 316 -200 c 0
 427 -200 562 -147 601 -100 c 1
 546 205 l 1
 618 253 l 1
 623 219 628 185 633 151 c 1
 636 150 l 1
 650 134 673 120 706 111 c 1
 790 208 934 402 1077 402 c 0
EndSplineSet
Colour: ffda6b
EndChar

StartChar: _.sad.medi
Encoding: 65554 -1 18
GlifName: _.sad.medi
Width: 1035
VWidth: 1304
GlyphClass: 1
UnlinkRmOvrlpSave: 1
Flags: HMW
LayerCount: 2
Fore
SplineSet
382 100 m 1
 369 100 l 1
 382 100 l 1
692 402 m 0
 791 402 883 308 883 201 c 0
 883 180 881 161 877 144 c 1
 904 118 955 100 1035 100 c 1
 1034 0 l 1
 953 0 883 24 841 68 c 1
 808 25 754 0 680 0 c 2
 325 0 l 2
 281 0 231 18 195 71 c 1
 154 25 81 0 0 0 c 2
 -1 0 l 1
 -26 1 -50 24 -50 50 c 0
 -50 75 -25 100 -2 100 c 0
 83 101 135 121 161 149 c 1
 132 268 l 1
 195 285 l 1
 227 166 l 2
 238 123 275 108 314 102 c 1
 396 197 544 402 692 402 c 0
382 100 m 1
 481 100 581 100 680 100 c 0
 756 100 802 133 829 172 c 1
 820 235 762 299 676 300 c 0
 597 300 494 244 382 100 c 1
EndSplineSet
Colour: ffda6b
EndChar

StartChar: _.sad.init
Encoding: 65555 -1 19
GlifName: _.sad.init
Width: 947
VWidth: 1304
GlyphClass: 1
UnlinkRmOvrlpSave: 1
Flags: HMW
LayerCount: 2
Fore
SplineSet
325 0 m 2
 281 0 231 18 195 71 c 1
 154 25 81 0 0 0 c 2
 -1 0 l 1
 -26 1 -50 24 -50 50 c 0
 -50 75 -25 100 -2 100 c 0
 83 101 135 121 161 149 c 1
 132 268 l 1
 195 285 l 1
 227 166 l 2
 238 123 275 108 314 102 c 1
 396 197 544 402 692 402 c 0
 789 402 875 312 883 214 c 0
 883 212 883 209 883 207 c 0
 883 83 814 0 680 0 c 2
 325 0 l 2
382 100 m 1
 369 100 l 1
 382 100 l 1
382 100 m 1
 481 100 581 100 680 100 c 0
 756 100 802 133 829 172 c 1
 820 235 762 299 676 300 c 0
 597 300 494 244 382 100 c 1
EndSplineSet
Colour: ffda6b
EndChar

StartChar: _.ta.isol
Encoding: 65556 -1 20
GlifName: _.ta.isol
Width: 884
VWidth: 1304
GlyphClass: 1
UnlinkRmOvrlpSave: 1
Flags: HMW
LayerCount: 2
Fore
SplineSet
319 100 m 1
 418 100 518 100 617 100 c 0
 693 100 739 133 766 172 c 1
 757 235 699 299 613 300 c 0
 534 300 431 244 319 100 c 1
629 402 m 0
 726 402 812 312 820 214 c 0
 820 212 820 209 820 207 c 0
 820 83 751 0 617 0 c 0
 461 0 304 0 148 0 c 0
 130 0 64 60 64 87 c 0
 64 95 69 100 82 100 c 0
 136 100 190 100 244 100 c 1
 226 780 l 1
 306 800 l 1
 306 168 l 1
 391 269 511 402 629 402 c 0
306 100 m 1
 319 100 l 1
 306 100 l 1
EndSplineSet
Colour: ffda6b
EndChar

StartChar: _.ta.fina
Encoding: 65557 -1 21
GlifName: _.ta.fina
Width: 972
VWidth: 1304
GlyphClass: 1
UnlinkRmOvrlpSave: 1
Flags: HMW
LayerCount: 2
Fore
SplineSet
319 100 m 1
 418 100 518 100 617 100 c 0
 693 100 739 133 766 172 c 1
 757 235 699 299 613 300 c 0
 534 300 431 244 319 100 c 1
629 402 m 0
 728 402 820 308 820 201 c 0
 820 180 818 161 814 144 c 1
 841 118 892 100 972 100 c 1
 971 0 l 1
 890 0 820 24 778 68 c 1
 745 25 691 0 617 0 c 0
 461 0 304 0 148 0 c 0
 130 0 64 60 64 87 c 0
 64 95 69 100 82 100 c 0
 136 100 190 100 244 100 c 1
 226 780 l 1
 306 800 l 1
 306 168 l 1
 391 269 511 402 629 402 c 0
306 100 m 1
 319 100 l 1
 306 100 l 1
EndSplineSet
Colour: ffda6b
EndChar

StartChar: _.ta.medi
Encoding: 65558 -1 22
GlifName: _.ta.medi
Width: 794
VWidth: 1304
GlyphClass: 1
UnlinkRmOvrlpSave: 1
Flags: HMW
LayerCount: 2
Fore
SplineSet
141 100 m 1
 240 100 340 100 439 100 c 0
 515 100 561 133 588 172 c 1
 579 235 521 299 435 300 c 0
 356 300 253 244 141 100 c 1
451 402 m 0
 550 402 642 308 642 201 c 0
 642 180 640 161 636 144 c 1
 663 118 714 100 794 100 c 1
 793 0 l 1
 712 0 642 24 600 68 c 1
 567 25 513 0 439 0 c 2
 0 0 l 2
 -25 0 -50 24 -50 50 c 0
 -49 76 -25 100 0 100 c 2
 66 100 l 1
 48 780 l 1
 128 800 l 1
 128 168 l 1
 213 269 333 402 451 402 c 0
128 100 m 1
 141 100 l 1
 128 100 l 1
EndSplineSet
Colour: ffda6b
EndChar

StartChar: _.ta.init
Encoding: 65559 -1 23
GlifName: _.ta.init
Width: 706
VWidth: 1304
GlyphClass: 1
UnlinkRmOvrlpSave: 1
Flags: HMW
LayerCount: 2
Fore
SplineSet
141 100 m 1
 240 100 340 100 439 100 c 0
 515 100 561 133 588 172 c 1
 579 235 521 299 435 300 c 0
 356 300 253 244 141 100 c 1
0 100 m 2
 66 100 l 1
 48 780 l 1
 128 800 l 1
 128 168 l 1
 213 269 333 402 451 402 c 0
 548 402 634 312 642 214 c 0
 642 212 642 209 642 207 c 0
 642 83 573 0 439 0 c 2
 0 0 l 2
 -25 0 -50 24 -50 50 c 0
 -49 76 -25 100 0 100 c 2
128 100 m 1
 141 100 l 1
 128 100 l 1
EndSplineSet
Colour: ffda6b
EndChar

StartChar: _.ein.isol
Encoding: 65560 -1 24
GlifName: _.ein.isol
Width: 689
VWidth: 1304
GlyphClass: 1
UnlinkRmOvrlpSave: 1
Flags: HMW
LayerCount: 2
Fore
SplineSet
124 -134 m 0
 124 -267 263 -312 430 -312 c 0
 489 -312 551 -306 612 -297 c 1
 582 -374 l 1
 507 -396 435 -407 369 -407 c 0
 193 -407 64 -329 64 -160 c 0
 64 -141 66 -121 69 -100 c 0
 89 22 168 131 284 205 c 1
 234 261 191 331 191 407 c 0
 191 425 193 442 198 460 c 0
 221 536 304 608 399 614 c 0
 401 614 403 614 405 614 c 0
 462 614 523 582 579 548 c 1
 558 481 l 1
 507 504 460 513 419 513 c 0
 326 513 265 469 262 454 c 0
 261 450 261 447 261 443 c 0
 261 381 342 280 417 277 c 0
 467 275 507 287 535 292 c 1
 535 292 578 302 625 319 c 1
 596 225 l 1
 526 209 447 186 385 156 c 1
 385 155 l 1
 263 98 151 1 127 -100 c 0
 124 -112 124 -123 124 -134 c 0
EndSplineSet
Colour: ffda6b
EndChar

StartChar: _.ein.fina
Encoding: 65561 -1 25
GlifName: _.ein.fina
Width: 646
VWidth: 1304
GlyphClass: 1
UnlinkRmOvrlpSave: 1
Flags: HMW
LayerCount: 2
Fore
SplineSet
340 469 m 0
 422 469 468 451 481 447 c 0
 547 422 550 368 550 351 c 0
 550 268 455 211 407 170 c 1
 450 116 494 100 535 100 c 2
 646 100 l 1
 646 0 l 1
 536 0 l 2
 465 0 403 55 340 120 c 1
 244 62 165 -17 146 -100 c 0
 143 -112 143 -123 143 -134 c 0
 143 -267 282 -312 449 -312 c 0
 508 -312 570 -306 631 -297 c 1
 601 -374 l 1
 526 -396 454 -407 388 -407 c 0
 212 -407 83 -329 83 -160 c 0
 83 -141 85 -121 88 -100 c 0
 106 12 174 113 276 187 c 1
 212 252 144 310 64 314 c 1
 64 314 88 415 90 426 c 1
 196 459 279 469 340 469 c 0
479 332 m 0
 479 371 351 376 333 377 c 0
 223 375 175 351 175 351 c 1
 244 319 325 238 346 221 c 1
 431 272 479 321 479 332 c 0
EndSplineSet
Colour: ffda6b
EndChar

StartChar: _.ein.medi
Encoding: 65562 -1 26
GlifName: _.ein.medi
Width: 629
VWidth: 1304
GlyphClass: 1
UnlinkRmOvrlpSave: 1
Flags: HMW
LayerCount: 2
Fore
SplineSet
427 294 m 0
 427 333 306 338 290 338 c 0
 180 337 143 314 143 314 c 1
 212 281 302 185 322 168 c 1
 406 218 427 281 427 294 c 0
629 100 m 1
 629 0 l 1
 471 0 378 20 309 68 c 1
 181 0 51 0 21 0 c 2
 1 0 l 2
 -25 0 -50 24 -50 50 c 0
 -50 76 -25 100 1 100 c 2
 18 100 l 2
 137 100 189 118 236 132 c 1
 120 254 42 277 42 277 c 1
 42 277 65 378 67 389 c 1
 173 422 250 432 305 432 c 0
 379 432 414 414 427 410 c 0
 494 385 497 341 497 326 c 0
 497 245 438 163 391 124 c 1
 478 99 540 100 629 100 c 1
EndSplineSet
Colour: ffda6b
EndChar

StartChar: _.ein.init
Encoding: 65563 -1 27
GlifName: _.ein.init
Width: 594
VWidth: 1304
GlyphClass: 1
UnlinkRmOvrlpSave: 1
Flags: HMW
LayerCount: 2
Fore
SplineSet
71 100 m 2
 104 100 138 103 174 107 c 1
 136 151 116 211 116 271 c 0
 116 375 178 477 324 485 c 0
 327 485 330 485 333 485 c 0
 388 485 448 453 503 420 c 1
 482 352 l 1
 429 376 382 385 343 385 c 0
 259 385 209 345 206 331 c 0
 204 321 204 310 204 298 c 0
 204 245 222 171 290 129 c 1
 387 152 476 181 530 191 c 1
 507 100 l 1
 393 74 219 0 92 0 c 2
 1 0 l 2
 -25 0 -50 24 -50 50 c 0
 -50 76 -25 100 1 100 c 2
 71 100 l 2
EndSplineSet
Colour: ffda6b
EndChar

StartChar: _.feh.isol
Encoding: 65564 -1 28
GlifName: _.feh.isol
Width: 926
VWidth: 1304
GlyphClass: 1
UnlinkRmOvrlpSave: 1
Flags: HMW
LayerCount: 2
Fore
SplineSet
663 490 m 0
 615 490 586 434 586 383 c 0
 586 345 622 310 697 310 c 2
 697 310 699 310 701 310 c 0
 712 310 745 311 785 320 c 1
 774 398 744 490 663 490 c 0
862 181 m 1
 862 170 l 1
 860 139 852 94 832 74 c 0
 797 39 623 -5 450 -5 c 0
 257 -5 64 49 64 231 c 0
 64 278 76 334 106 400 c 1
 154 379 l 1
 135 338 126 302 126 271 c 0
 126 140 282 96 452 96 c 0
 573 96 701 118 787 146 c 1
 787 146 791 148 796 150 c 1
 796 173 796 197 796 220 c 1
 775 218 751 208 702 208 c 0
 620 208 527 229 526 340 c 0
 526 424 581 596 689 596 c 0
 849 596 857 345 862 181 c 1
EndSplineSet
Colour: ffda6b
EndChar

StartChar: _.feh.fina
Encoding: 65565 -1 29
GlifName: _.feh.fina
Width: 1009
VWidth: 1304
GlyphClass: 1
UnlinkRmOvrlpSave: 1
Flags: HMW
LayerCount: 2
Fore
SplineSet
730 451 m 0
 827 451 865 321 865 262 c 0
 864 122 727 15 552 0 c 0
 519 -3 485 -5 451 -5 c 0
 258 -5 64 50 64 231 c 0
 64 278 77 334 107 400 c 1
 155 379 l 1
 136 337 127 301 127 270 c 0
 127 140 281 96 450 96 c 0
 470 96 490 98 511 98 c 0
 656 99 779 150 815 234 c 1
 806 277 778 343 723 349 c 1
 668 343 631 291 621 244 c 1
 638 170 778 100 938 100 c 2
 1009 100 l 1
 1009 0 l 1
 938 0 l 2
 721 0 599 130 579 210 c 0
 577 218 575 228 575 240 c 0
 575 314 629 451 730 451 c 0
EndSplineSet
Colour: ffda6b
EndChar

StartChar: _.feh.medi
Encoding: 65566 -1 30
GlifName: _.feh.medi
Width: 500
VWidth: 1304
GlyphClass: 1
UnlinkRmOvrlpSave: 1
Flags: HMW
LayerCount: 2
Fore
SplineSet
221 451 m 0
 318 451 354 321 355 262 c 0
 353 109 196 0 0 0 c 0
 -26 0 -50 24 -50 50 c 0
 -50 76 -26 100 -1 100 c 0
 145 100 270 149 307 234 c 1
 297 277 269 343 214 349 c 1
 159 343 121 291 112 244 c 1
 129 170 270 100 430 100 c 2
 500 100 l 1
 500 0 l 1
 430 0 l 2
 213 0 89 130 70 210 c 0
 68 218 66 228 66 240 c 0
 66 314 121 451 221 451 c 0
EndSplineSet
Colour: ffda6b
EndChar

StartChar: _.feh.init
Encoding: 65567 -1 31
GlifName: _.feh.init
Width: 445
VWidth: 1304
GlyphClass: 1
UnlinkRmOvrlpSave: 1
Flags: HMW
LayerCount: 2
Fore
SplineSet
182 490 m 0
 134 490 105 434 105 383 c 0
 105 345 141 310 216 310 c 2
 216 310 218 310 220 310 c 0
 231 310 264 311 304 320 c 1
 293 398 263 490 182 490 c 0
380 294 m 0
 380 285 380 278 380 268 c 0
 380 237 381 198 381 170 c 0
 381 163 381 157 381 150 c 0
 381 50 281 0 181 0 c 0
 121 0 60 -1 0 0 c 0
 -25 0 -50 24 -50 50 c 0
 -50 75 -25 100 0 100 c 2
 181 100 l 2
 233 100 284 116 315 150 c 1
 315 173 315 197 315 220 c 1
 294 218 270 208 221 208 c 0
 139 208 46 229 45 340 c 0
 45 424 100 596 208 596 c 0
 344 596 380 402 380 294 c 0
EndSplineSet
Colour: ffda6b
EndChar

StartChar: _.qaf.isol
Encoding: 65568 -1 32
GlifName: _.qaf.isol
Width: 725
VWidth: 1304
GlyphClass: 1
UnlinkRmOvrlpSave: 1
Flags: HMW
LayerCount: 2
Fore
SplineSet
463 300 m 0
 414 300 384 245 384 193 c 0
 384 154 420 119 495 119 c 1
 495 119 534 119 583 129 c 1
 572 206 542 300 463 300 c 0
661 -76 m 0
 661 -191 488 -301 308 -301 c 0
 119 -301 64 -199 64 -72 c 0
 64 4 83 90 106 168 c 1
 154 157 l 1
 138 92 127 31 127 -22 c 0
 127 -129 173 -200 316 -200 c 0
 427 -200 552 -146 593 -100 c 1
 594 31 l 1
 573 29 549 18 500 18 c 0
 497 18 495 18 492 18 c 0
 414 18 325 41 324 149 c 0
 324 234 379 405 487 405 c 0
 623 405 660 213 660 105 c 0
 660 103 660 102 660 100 c 2
 660 -64 l 2
 660 -68 661 -72 661 -76 c 0
EndSplineSet
Colour: ffda6b
EndChar

StartChar: _.qaf.fina
Encoding: 65569 -1 33
GlifName: _.qaf.fina
Width: 831
VWidth: 1304
GlyphClass: 1
UnlinkRmOvrlpSave: 1
Flags: HMW
LayerCount: 2
Fore
SplineSet
487 385 m 0
 616 385 656 211 660 100 c 1
 831 100 l 1
 831 0 l 1
 660 0 l 1
 660 -64 l 2
 660 -68 661 -72 661 -76 c 0
 661 -191 488 -301 308 -301 c 0
 119 -301 64 -199 64 -72 c 0
 64 4 83 90 106 168 c 1
 154 157 l 1
 138 92 127 31 127 -22 c 0
 127 -129 173 -200 316 -200 c 0
 427 -200 552 -146 593 -100 c 1
 593 0 l 1
 535 0 l 1
 523 -1 509 -3 492 -3 c 0
 414 -2 325 21 324 129 c 0
 324 213 379 385 487 385 c 0
584 100 m 1
 575 170 550 279 461 279 c 0
 413 279 384 224 384 174 c 0
 384 135 420 100 495 100 c 0
 525 100 554 100 584 100 c 1
EndSplineSet
Colour: ffda6b
EndChar

StartChar: _.kaf.isol.fa
Encoding: 65570 -1 34
GlifName: _.kaf.isol.fa
Width: 1047
VWidth: 1304
GlyphClass: 1
UnlinkRmOvrlpSave: 1
Flags: HMW
LayerCount: 2
Fore
SplineSet
862 181 m 1
 862 167 l 1
 860 137 850 94 832 74 c 0
 797 39 623 -5 450 -5 c 0
 257 -5 64 49 64 231 c 0
 64 278 76 334 106 400 c 1
 154 379 l 1
 135 338 126 302 126 271 c 0
 126 140 282 96 452 96 c 0
 573 96 701 118 787 146 c 1
 796 152 l 1
 794 295 616 450 520 550 c 1
 521 550 l 1
 520 550 l 1
 563 650 l 1
 983 800 l 1
 967 714 l 1
 622 587 l 1
 736 473 856 347 862 181 c 1
EndSplineSet
Colour: ffda6b
EndChar

StartChar: _.kaf.isol.ar
Encoding: 65571 -1 35
GlifName: _.kaf.isol.ar
Width: 926
VWidth: 1304
GlyphClass: 1
UnlinkRmOvrlpSave: 1
Flags: HMW
LayerCount: 2
Fore
SplineSet
450 -5 m 0
 257 -5 64 49 64 231 c 0
 64 278 76 334 106 400 c 1
 154 379 l 1
 135 338 126 302 126 271 c 0
 126 140 282 96 452 96 c 0
 573 96 701 118 787 146 c 1
 787 146 791 147 797 151 c 1
 772 700 l 1
 852 720 l 1
 862 181 l 2
 862 151 854 96 832 74 c 0
 797 39 623 -5 450 -5 c 0
EndSplineSet
Colour: ffda6b
EndChar

StartChar: _.kaf.fina.fa
Encoding: 65572 -1 36
GlifName: _.kaf.fina.fa
Width: 1095
VWidth: 1304
GlyphClass: 1
UnlinkRmOvrlpSave: 1
Flags: HMW
LayerCount: 2
Fore
SplineSet
1095 100 m 1
 1095 0 l 1
 966 0 907 42 857 134 c 1
 852 111 844 88 832 74 c 0
 797 39 623 -5 450 -5 c 0
 257 -5 64 49 64 231 c 0
 64 278 76 334 106 400 c 1
 154 379 l 1
 135 338 126 302 126 271 c 0
 126 140 282 96 452 96 c 0
 573 96 701 118 787 146 c 1
 796 152 l 1
 794 295 616 450 520 550 c 1
 521 550 l 1
 520 550 l 1
 563 650 l 1
 983 800 l 1
 967 714 l 1
 622 587 l 1
 684 525 744 460 792 389 c 0
 822 345 880 257 921 197 c 1
 952 156 l 2
 989 108 1022 100 1095 100 c 1
EndSplineSet
Colour: ffda6b
EndChar

StartChar: _.kaf.fina.ar
Encoding: 65573 -1 37
GlifName: _.kaf.fina.ar
Width: 1075
VWidth: 1304
GlyphClass: 1
UnlinkRmOvrlpSave: 1
Flags: HMW
LayerCount: 2
Fore
SplineSet
450 -5 m 0
 257 -5 64 49 64 231 c 0
 64 278 76 334 106 400 c 1
 154 379 l 1
 135 338 126 302 126 271 c 0
 126 140 282 96 452 96 c 0
 573 96 701 118 787 146 c 1
 787 146 792 148 801 152 c 1
 775 700 l 1
 855 720 l 1
 864 252 l 1
 886 222 911 187 934 156 c 0
 970 108 1004 100 1075 100 c 1
 1075 0 l 1
 958 0 899 36 851 112 c 1
 846 96 841 83 832 74 c 0
 797 39 623 -5 450 -5 c 0
EndSplineSet
Colour: ffda6b
EndChar

StartChar: _.kaf.medi
Encoding: 65574 -1 38
GlifName: _.kaf.medi
Width: 548
VWidth: 1304
GlyphClass: 1
UnlinkRmOvrlpSave: 1
Flags: HMW
LayerCount: 2
Fore
SplineSet
0 100 m 2
 90 100 l 2
 148 100 230 110 255 152 c 1
 253 295 75 450 -21 550 c 1
 -20 550 l 1
 -21 550 l 1
 22 650 l 1
 442 800 l 1
 426 714 l 1
 81 587 l 1
 145 522 209 452 259 377 c 0
 288 333 333 257 374 197 c 1
 405 156 l 2
 442 108 477 100 548 100 c 1
 548 0 l 1
 425 0 365 39 316 123 c 1
 291 16 175 0 91 0 c 2
 0 0 l 2
 -26 0 -50 24 -50 50 c 0
 -50 76 -25 100 0 100 c 2
EndSplineSet
Colour: ffda6b
EndChar

StartChar: _.kaf.init
Encoding: 65575 -1 39
GlifName: _.kaf.init
Width: 506
VWidth: 1304
GlyphClass: 1
UnlinkRmOvrlpSave: 1
Flags: HMW
LayerCount: 2
Fore
SplineSet
0 100 m 2
 90 100 l 2
 148 100 230 110 255 152 c 1
 253 295 75 450 -21 550 c 1
 -20 550 l 1
 -21 550 l 1
 22 650 l 1
 442 800 l 1
 426 714 l 1
 81 587 l 1
 198 469 321 340 321 168 c 0
 321 20 186 0 91 0 c 2
 0 0 l 2
 -26 0 -50 24 -50 50 c 0
 -50 76 -25 100 0 100 c 2
EndSplineSet
Colour: ffda6b
EndChar

StartChar: _.ghaf.isol
Encoding: 65577 -1 41
GlifName: _.ghaf.isol
Width: 1047
VWidth: 0
GlyphClass: 1
UnlinkRmOvrlpSave: 1
Flags: HMW
LayerCount: 2
Fore
SplineSet
862 181 m 1
 862 167 l 1
 860 137 850 94 832 74 c 0
 797 39 623 -5 450 -5 c 0
 257 -5 64 49 64 231 c 0
 64 278 76 334 106 400 c 1
 154 379 l 1
 135 338 126 302 126 271 c 0
 126 140 282 96 452 96 c 0
 577 96 706 120 793 149 c 1
 796 152 l 1
 798 269 610 400 521 465 c 1
 520 465 l 1
 521 465 l 1
 520 465 l 1
 563 565 l 1
 983 715 l 1
 937 615 l 1
 631 505 l 1
 753 408 856 323 862 181 c 1
905 821 m 1
 893 766 l 1
 580 649 l 1
 596 710 l 1
 905 821 l 1
EndSplineSet
Colour: ffda6b
EndChar

StartChar: _.ghaf.fina
Encoding: 65578 -1 42
GlifName: _.ghaf.fina
Width: 1081
VWidth: 0
GlyphClass: 1
Flags: HMW
LayerCount: 2
Fore
SplineSet
520 465 m 1
 521 465 l 1
 520 465 l 1
 563 565 l 1
 983 715 l 1
 937 615 l 1
 631 505 l 1
 699 451 761 400 804 342 c 0
 841 293 894 217 940 156 c 0
 976 108 1010 100 1081 100 c 1
 1081 0 l 1
 960 0 902 37 854 118 c 1
 849 101 842 84 832 74 c 0
 797 39 623 -5 450 -5 c 0
 257 -5 64 49 64 231 c 0
 64 278 76 334 106 400 c 1
 154 379 l 1
 135 338 126 302 126 271 c 0
 126 140 282 96 452 96 c 0
 577 96 706 120 793 149 c 1
 796 152 l 1
 798 269 610 400 521 465 c 1
 520 465 l 1
905 821 m 1
 893 766 l 1
 580 649 l 1
 596 710 l 1
 905 821 l 1
EndSplineSet
Colour: ffda6b
EndChar

StartChar: _.ghaf_sarkaj.medi
Encoding: 65579 -1 43
GlifName: _.ghaf_sarkaj.medi
Width: 525
VWidth: 1304
GlyphClass: 1
UnlinkRmOvrlpSave: 1
Flags: HMW
LayerCount: 2
Fore
SplineSet
154 -323 m 0
 153 -323 152 -323 151 -323 c 0
 119 -323 -48 -318 -50 -96 c 0
 -50 -74 -41 16 8 129 c 1
 66 119 l 1
 66 119 18 -7 18 -77 c 0
 18 -84 18 -197 132 -219 c 0
 139 -220 165 -225 202 -225 c 1
 202 -225 205 -226 209 -226 c 0
 229 -226 293 -224 330 -214 c 0
 363 -205 438 -171 450 -125 c 0
 452 -110 456 -86 456 -1 c 0
 456 21 449 435 447 684 c 1
 525 716 l 1
 525 716 523 216 522 -14 c 1
 522 -14 522 -112 511 -148 c 0
 506 -166 475 -278 319 -315 c 0
 297 -320 262 -323 154 -323 c 0
EndSplineSet
Colour: ffda6b
EndChar

StartChar: _.lam.isol
Encoding: 65580 -1 44
GlifName: _.lam.isol
Width: 724
VWidth: 1304
GlyphClass: 1
UnlinkRmOvrlpSave: 1
Flags: HMW
LayerCount: 2
Fore
SplineSet
660 33 m 0
 660 -86 490 -200 308 -200 c 0
 118 -200 64 -98 64 30 c 0
 64 106 83 191 105 269 c 1
 153 257 l 1
 137 192 126 131 126 79 c 0
 126 -28 172 -100 316 -100 c 0
 426 -100 559 -47 600 0 c 1
 550 780 l 1
 630 800 l 1
 659 40 l 2
 659 37 660 36 660 33 c 0
EndSplineSet
Colour: ffda6b
EndChar

StartChar: _.lam.fina
Encoding: 65581 -1 45
GlifName: _.lam.fina
Width: 824
VWidth: 1304
GlyphClass: 1
UnlinkRmOvrlpSave: 1
Flags: HMW
LayerCount: 2
Fore
SplineSet
593 170 m 1
 594 170 l 1
 579 780 l 1
 659 800 l 1
 659 150 l 1
 685 120 738 100 824 100 c 1
 824 0 l 1
 761 0 702 13 659 39 c 1
 659 -63 l 2
 659 -65 659 -66 659 -68 c 0
 659 -186 490 -301 308 -301 c 0
 118 -301 64 -198 64 -70 c 0
 64 6 83 90 105 168 c 1
 153 157 l 1
 137 92 126 31 126 -21 c 0
 126 -128 172 -200 316 -200 c 0
 426 -200 559 -147 600 -101 c 1
 594 127 l 1
 593 134 592 141 592 148 c 0
 592 155 593 163 593 170 c 1
EndSplineSet
Colour: ffda6b
EndChar

StartChar: _.lam.medi
Encoding: 65582 -1 46
GlifName: _.lam.medi
Width: 395
VWidth: 1304
GlyphClass: 1
UnlinkRmOvrlpSave: 1
Flags: HMW
LayerCount: 2
Fore
SplineSet
-1 0 m 1
 -1 0 l 1
 -25 0 -50 24 -50 49 c 0
 -50 76 -27 100 -1 100 c 0
 85 100 138 120 164 150 c 1
 164 157 164 163 164 170 c 1
 165 170 l 1
 150 780 l 1
 230 800 l 1
 230 150 l 1
 230 150 l 1
 256 120 309 100 395 100 c 1
 395 0 l 1
 314 0 239 22 197 66 c 1
 155 22 80 0 -1 0 c 1
EndSplineSet
Colour: ffda6b
EndChar

StartChar: _.lam.init
Encoding: 65583 -1 47
GlifName: _.lam.init
Width: 293
VWidth: 1304
GlyphClass: 1
UnlinkRmOvrlpSave: 1
Flags: HMW
LayerCount: 2
Fore
SplineSet
229 170 m 2
 229 163 229 157 229 150 c 0
 229 50 120 0 -1 0 c 2
 -2 0 l 1
 -26 1 -50 23 -50 48 c 0
 -50 74 -28 100 -2 100 c 0
 84 101 143 122 169 152 c 1
 130 780 l 1
 210 800 l 1
 229 170 l 2
EndSplineSet
Colour: ffda6b
EndChar

StartChar: _.mim.isol
Encoding: 65584 -1 48
GlifName: _.mim.isol
Width: 651
VWidth: 1304
GlyphClass: 1
UnlinkRmOvrlpSave: 1
Flags: HMW
LayerCount: 2
Fore
SplineSet
362 378 m 0
 350 378 341 373 334 362 c 0
 306 316 287 271 269 230 c 1
 280 231 292 231 304 231 c 0
 374 231 449 220 518 207 c 1
 495 286 412 378 362 378 c 0
405 490 m 0
 505 490 587 335 587 201 c 0
 587 187 586 173 584 160 c 0
 584 128 550 96 518 100 c 0
 445 109 360 124 286 124 c 0
 223 124 169 116 139 95 c 1
 157 -393 l 1
 96 -399 l 1
 64 27 l 1
 63 156 135 209 231 225 c 1
 208 242 l 1
 239 291 259 359 306 434 c 0
 336 481 371 490 405 490 c 0
EndSplineSet
Colour: ffda6b
EndChar

StartChar: _.mim.fina
Encoding: 65585 -1 49
GlifName: _.mim.fina
Width: 715
VWidth: 1304
GlyphClass: 1
UnlinkRmOvrlpSave: 1
Flags: HMW
LayerCount: 2
Fore
SplineSet
386 96 m 0
 412 96 439 108 465 129 c 0
 464 131 464 133 463 134 c 2
 416 300 l 1
 378 299 331 293 284 282 c 1
 286 150 332 96 386 96 c 0
673 100 m 2
 711 100 l 1
 715 2 l 1
 674 0 l 1
 620 0 547 14 501 66 c 1
 454 15 406 -8 364 -8 c 0
 274 -8 206 95 204 253 c 1
 179 242 156 229 138 212 c 1
 156 -376 l 1
 96 -382 l 1
 64 144 l 1
 62 334 212 386 389 397 c 1
 381 425 l 1
 454 473 l 1
 514 248 l 2
 547 124 581 100 673 100 c 2
EndSplineSet
Colour: ffda6b
EndChar

StartChar: _.mim.medi
Encoding: 65586 -1 50
GlifName: _.mim.medi
Width: 731
VWidth: 1304
GlyphClass: 1
UnlinkRmOvrlpSave: 1
Flags: HMW
LayerCount: 2
Fore
SplineSet
482 107 m 0
 482 191 378 318 320 318 c 0
 308 318 299 312 292 301 c 0
 265 258 247 216 230 175 c 1
 303 141 412 100 482 100 c 1
 482 102 482 105 482 107 c 0
731 100 m 1
 731 0 l 1
 649 0 571 23 529 70 c 1
 509 29 478 0 428 0 c 0
 390 0 286 22 175 74 c 1
 141 29 93 0 10 0 c 0
 7 0 2 0 -1 0 c 0
 -26 0 -50 24 -50 50 c 0
 -50 76 -26 100 -1 100 c 0
 181 100 168 220 264 375 c 0
 294 421 329 429 363 429 c 0
 439 429 499 337 532 235 c 0
 555 164 578 100 731 100 c 1
EndSplineSet
Colour: ffda6b
EndChar

StartChar: _.mim.init
Encoding: 65587 -1 51
GlifName: _.mim.init
Width: 609
VWidth: 1304
GlyphClass: 1
UnlinkRmOvrlpSave: 1
Flags: HMW
LayerCount: 2
Fore
SplineSet
482 107 m 0
 482 191 378 318 320 318 c 0
 308 318 299 312 292 301 c 0
 265 258 247 216 230 175 c 1
 303 141 412 100 482 100 c 1
 482 102 482 105 482 107 c 0
428 0 m 0
 390 0 286 22 175 74 c 1
 141 29 93 0 10 0 c 0
 7 0 2 0 -1 0 c 0
 -26 0 -50 24 -50 50 c 0
 -50 76 -26 100 -1 100 c 0
 181 100 168 220 264 375 c 0
 294 421 329 429 363 429 c 0
 463 429 545 274 545 140 c 0
 545 126 544 113 542 100 c 1
 522 46 491 0 428 0 c 0
EndSplineSet
Colour: ffda6b
EndChar

StartChar: _.nun.isol
Encoding: 65588 -1 52
GlifName: _.nun.isol
Width: 724
VWidth: 1305
GlyphClass: 1
UnlinkRmOvrlpSave: 1
Flags: HMW
LayerCount: 2
Fore
SplineSet
660 32 m 0
 660 -86 491 -200 308 -200 c 0
 119 -200 64 -98 64 30 c 0
 64 106 83 191 106 269 c 1
 154 257 l 1
 138 192 127 131 127 79 c 0
 127 -28 173 -100 317 -100 c 0
 428 -100 562 -47 601 0 c 1
 547 305 l 1
 618 354 l 1
 632 248 653 141 660 39 c 0
 660 36 660 34 660 32 c 0
EndSplineSet
Colour: ffda6b
EndChar

StartChar: _.nun.fina
Encoding: 65589 -1 53
GlifName: _.nun.fina
Width: 808
VWidth: 1413
GlyphClass: 1
UnlinkRmOvrlpSave: 1
Flags: HMW
LayerCount: 2
Fore
SplineSet
656 36 m 1
 657 17 660 0 660 -18 c 0
 660 -137 491 -250 308 -250 c 0
 119 -250 64 -149 64 -21 c 0
 64 55 83 141 106 219 c 1
 154 207 l 1
 138 142 127 80 127 28 c 0
 127 -79 173 -150 317 -150 c 0
 428 -150 562 -97 601 -51 c 1
 547 255 l 1
 618 304 l 1
 624 254 633 204 640 154 c 0
 641 153 642 151 643 150 c 0
 666 119 722 100 808 100 c 1
 807 0 l 1
 749 0 695 13 656 36 c 1
EndSplineSet
Colour: ffda6b
EndChar

StartChar: _.vav.isol
Encoding: 65590 -1 54
GlifName: _.vav.isol
Width: 555
VWidth: 1304
GlyphClass: 1
UnlinkRmOvrlpSave: 1
Flags: HMW
LayerCount: 2
Fore
SplineSet
301 297 m 0
 241 297 206 219 206 158 c 0
 206 123 251 100 308 100 c 2
 416 100 l 1
 408 180 376 297 301 297 c 0
425 12 m 1
 403 10 345 -1 291 -1 c 0
 193 -1 150 65 150 143 c 0
 150 149 150 155 151 161 c 0
 161 272 229 400 319 400 c 0
 441 400 491 222 491 77 c 0
 491 53 490 29 487 8 c 1
 487 0 l 1
 465 -152 326 -303 229 -303 c 0
 225 -303 221 -303 217 -302 c 2
 64 -281 l 1
 67 -265 65 -236 85 -236 c 0
 97 -236 110 -239 124 -239 c 0
 154 -239 184 -231 208 -223 c 0
 284 -199 407 -80 424 -14 c 1
 423 -14 l 1
 425 -10 425 -5 425 0 c 2
 425 12 l 1
EndSplineSet
Colour: ffda6b
EndChar

StartChar: _.vav.fina
Encoding: 65591 -1 55
GlifName: _.vav.fina
Width: 636
VWidth: 1304
GlyphClass: 1
UnlinkRmOvrlpSave: 1
Flags: HMW
LayerCount: 2
Fore
SplineSet
85 -236 m 0
 97 -236 110 -239 124 -239 c 0
 154 -239 184 -231 208 -223 c 0
 284 -199 407 -80 424 -14 c 1
 423 -14 l 1
 425 -10 425 -5 425 0 c 1
 325 0 l 1
 325 1 l 1
 318 1 310 0 303 0 c 0
 299 0 295 -1 291 -1 c 0
 193 -1 150 65 150 143 c 0
 150 149 150 155 151 161 c 0
 161 272 229 400 319 400 c 0
 435 400 485 240 490 100 c 1
 636 100 l 1
 636 0 l 1
 487 0 l 1
 465 -152 326 -303 229 -303 c 0
 225 -303 221 -303 217 -302 c 2
 64 -281 l 1
 67 -265 65 -236 85 -236 c 0
416 100 m 1
 408 180 376 297 301 297 c 0
 241 297 206 219 206 158 c 0
 206 123 251 100 308 100 c 0
 344 100 380 100 416 100 c 1
EndSplineSet
Colour: ffda6b
EndChar

StartChar: _.dal.isol
Encoding: 65592 -1 56
GlifName: _.dal.isol
Width: 551
VWidth: 1304
GlyphClass: 1
UnlinkRmOvrlpSave: 1
Flags: HMW
LayerCount: 2
Fore
SplineSet
487 171 m 0
 487 47 402 0 253 0 c 0
 105 0 64 44 64 133 c 0
 64 155 67 165 70 189 c 1
 118 182 l 1
 117 166 116 163 118 152 c 0
 127 110 188 100 258 100 c 0
 347 100 388 116 420 152 c 1
 420 193 356 322 226 444 c 1
 293 518 l 1
 404 401 487 288 487 171 c 0
EndSplineSet
Colour: ffda6b
EndChar

StartChar: _.dal.fina
Encoding: 65593 -1 57
GlifName: _.dal.fina
Width: 656
VWidth: 1304
GlyphClass: 1
UnlinkRmOvrlpSave: 1
Flags: HMW
LayerCount: 2
Fore
SplineSet
656 0 m 1
 567 0 499 8 452 63 c 1
 414 19 345 0 253 0 c 0
 105 0 64 44 64 133 c 0
 64 155 67 165 70 189 c 1
 118 182 l 1
 117 166 116 163 118 152 c 0
 127 110 188 100 258 100 c 0
 338 100 378 113 409 141 c 0
 409 142 409 144 408 145 c 2
 314 436 l 1
 376 519 l 1
 468 207 l 2
 473 192 477 178 483 167 c 1
 487 168 l 1
 487 159 l 1
 488 157 489 152 491 150 c 0
 513 113 604 100 624 100 c 2
 656 100 l 1
 656 0 l 1
EndSplineSet
Colour: ffda6b
EndChar

StartChar: _.ree.isol
Encoding: 65594 -1 58
GlifName: _.ree.isol
Width: 554
VWidth: 1304
GlyphClass: 1
UnlinkRmOvrlpSave: 1
Flags: HMW
LayerCount: 2
Fore
SplineSet
84 -236 m 0
 96 -236 110 -239 124 -239 c 0
 154 -239 184 -231 208 -223 c 0
 262 -205 337 -144 384 -85 c 0
 386 -79 393 -72 399 -63 c 0
 414 -43 425 -24 425 -1 c 0
 425 55 392 120 356 196 c 1
 423 269 l 1
 462 185 489 102 490 44 c 1
 490 39 l 2
 490 33 490 27 489 21 c 0
 489 14 487 6 486 0 c 0
 464 -152 326 -303 229 -303 c 0
 225 -303 221 -303 217 -302 c 2
 64 -281 l 1
 68 -265 65 -236 84 -236 c 0
EndSplineSet
Colour: ffda6b
EndChar

StartChar: _.ree.fina
Encoding: 65595 -1 59
GlifName: _.ree.fina
Width: 617
VWidth: 1304
GlyphClass: 1
UnlinkRmOvrlpSave: 1
Flags: HMW
LayerCount: 2
Fore
SplineSet
84 -236 m 0
 96 -236 110 -239 124 -239 c 0
 154 -239 184 -231 208 -223 c 0
 288 -198 418 -70 425 -6 c 1
 416 44 389 99 358 161 c 1
 426 236 l 1
 440 206 452 178 462 150 c 1
 493 116 544 100 596 100 c 2
 617 100 l 1
 616 0 l 1
 596 0 l 2
 558 0 521 7 489 21 c 1
 489 14 487 6 486 0 c 0
 464 -152 326 -303 229 -303 c 0
 225 -303 221 -303 217 -302 c 2
 64 -281 l 1
 68 -265 65 -236 84 -236 c 0
EndSplineSet
Colour: ffda6b
EndChar

StartChar: _.he8.isol
Encoding: 65596 -1 60
GlifName: _.he8.isol
Width: 471
VWidth: 1304
GlyphClass: 1
UnlinkRmOvrlpSave: 1
Flags: HMW
LayerCount: 2
Fore
SplineSet
126 176 m 0
 126 139 148 100 237 100 c 0
 294 100 352 126 352 163 c 0
 352 203 300 258 195 352 c 1
 146 247 l 2
 140 233 126 205 126 176 c 0
237 0 m 1
 217 0 l 1
 217 1 l 1
 113 7 64 61 64 141 c 0
 64 184 78 234 105 289 c 2
 154 388 l 1
 124 415 l 1
 173 502 l 1
 392 318 407 244 407 180 c 0
 407 174 407 168 407 162 c 0
 407 73 345 7 237 1 c 1
 237 0 l 1
EndSplineSet
Colour: ffda6b
EndChar

StartChar: _.he8.fina
Encoding: 65597 -1 61
GlifName: _.he8.fina
Width: 542
VWidth: 1304
GlyphClass: 1
UnlinkRmOvrlpSave: 1
Flags: HMW
LayerCount: 2
Fore
SplineSet
133 260 m 0
 133 249 146 242 183 236 c 0
 198 234 215 233 231 233 c 0
 259 233 287 236 309 242 c 1
 282 411 l 1
 250 386 183 332 151 293 c 0
 140 280 133 269 133 260 c 0
219 126 m 0
 199 126 180 128 161 132 c 0
 94 146 64 187 64 235 c 0
 64 268 79 305 106 337 c 0
 134 369 175 420 270 485 c 1
 260 544 l 1
 335 577 l 1
 395 200 l 2
 397 180 402 154 409 140 c 0
 426 104 485 100 542 100 c 1
 542 0 l 1
 415 0 341 40 327 130 c 1
 325 144 l 1
 299 133 259 126 219 126 c 0
EndSplineSet
Colour: ffda6b
EndChar

StartChar: _.he8.medi
Encoding: 65598 -1 62
GlifName: _.he8.medi
Width: 544
VWidth: 1304
GlyphClass: 1
UnlinkRmOvrlpSave: 1
Flags: HMW
LayerCount: 2
Fore
SplineSet
170 100 m 2
 227 100 317 122 317 195 c 0
 317 228 293 267 234 309 c 1
 175 254 148 190 148 127 c 0
 148 118 149 109 150 100 c 1
 170 100 l 2
-50 50 m 0
 -50 73 -27 99 -4 100 c 0
 28 101 59 100 91 100 c 1
 90 109 90 118 90 127 c 0
 90 238 138 351 232 431 c 1
 318 383 365 328 365 221 c 0
 365 214 364 207 364 200 c 0
 358 88 261 1 186 0 c 1
 211 -42 247 -78 291 -106 c 1
 283 -89 280 -72 280 -55 c 0
 280 27 362 100 418 100 c 2
 544 100 l 1
 544 0 l 1
 401 0 l 2
 370 0 335 -28 335 -64 c 0
 335 -95 362 -132 443 -160 c 1
 443 -160 l 1
 397 -243 l 1
 246 -206 151 -112 112 0 c 1
 -4 0 l 1
 -27 2 -50 25 -50 50 c 0
EndSplineSet
Colour: ffda6b
EndChar

StartChar: _.he8.init
Encoding: 65599 -1 63
GlifName: _.he8.init
Width: 595
VWidth: 1304
GlyphClass: 1
UnlinkRmOvrlpSave: 1
Flags: HMW
LayerCount: 2
Fore
SplineSet
412 98 m 0
 446 98 473 111 473 144 c 0
 473 175 446 225 357 296 c 1
 343 244 313 188 271 139 c 1
 321 114 373 98 412 98 c 0
111 298 m 0
 111 256 157 208 217 170 c 1
 233 180 250 192 268 204 c 1
 281 230 289 262 289 291 c 0
 289 321 281 348 267 362 c 1
 252 371 237 380 213 380 c 0
 185 380 155 368 130 341 c 0
 117 327 111 313 111 298 c 0
531 182 m 0
 531 151 524 125 515 100 c 0
 490 31 438 -2 371 -2 c 0
 320 -2 249 23 187 60 c 1
 137 23 79 0 21 0 c 2
 0 0 l 1
 0 10 l 1
 0 0 l 1
 -25 0 -50 24 -50 50 c 0
 -49 76 -25 100 0 100 c 2
 21 100 l 2
 54 100 82 104 113 114 c 1
 70 154 40 202 40 249 c 0
 40 276 51 302 71 329 c 0
 91 355 122 395 160 426 c 1
 147 433 134 440 122 448 c 1
 151 556 l 1
 188 535 l 1
 467 389 531 272 531 182 c 0
EndSplineSet
Colour: ffda6b
EndChar

StartChar: _.yeh.fina
Encoding: 65600 -1 64
GlifName: _.yeh.fina
Width: 784
VWidth: 1304
GlyphClass: 1
UnlinkRmOvrlpSave: 1
Flags: HMW
LayerCount: 2
Fore
SplineSet
662 -75 m 0
 662 -84 661 -94 658 -104 c 1
 658 -104 l 1
 635 -209 474 -301 309 -301 c 0
 120 -301 64 -199 64 -72 c 0
 64 4 84 90 107 168 c 1
 155 157 l 1
 139 92 127 31 127 -22 c 0
 127 -129 173 -200 316 -200 c 0
 417 -200 532 -156 581 -112 c 0
 589 -105 591 -97 591 -89 c 0
 591 -36 446 25 384 50 c 1
 397 84 410 117 423 151 c 1
 528 123 592 100 783 100 c 1
 784 0 l 1
 724 0 674 6 628 13 c 1
 649 -14 662 -43 662 -75 c 0
EndSplineSet
Colour: ffda6b
EndChar

StartChar: _.yeh.isol
Encoding: 65601 -1 65
GlifName: _.yeh.isol
Width: 790
VWidth: 1304
GlyphClass: 1
UnlinkRmOvrlpSave: 1
Flags: HMW
LayerCount: 2
Fore
SplineSet
378 112 m 0
 378 123 385 138 390 154 c 0
 414 235 481 449 712 449 c 0
 716 449 721 449 726 449 c 1
 705 349 l 1
 565 342 507 273 469 189 c 1
 582 164 l 1
 640 149 669 106 669 54 c 0
 669 36 665 16 658 -4 c 1
 658 -4 l 1
 635 -107 474 -201 309 -201 c 0
 120 -200 64 -98 64 29 c 0
 64 105 84 190 107 268 c 1
 155 257 l 1
 139 192 127 132 127 79 c 0
 127 -28 173 -100 316 -100 c 0
 411 -100 517 -61 571 -20 c 0
 588 -7 596 7 596 20 c 0
 596 45 565 67 516 76 c 0
 473 84 431 93 386 98 c 1
 380 101 378 106 378 112 c 0
EndSplineSet
Colour: ffda6b
EndChar

StartChar: _.la.isol
Encoding: 65602 -1 66
GlifName: _.la.isol
Width: 567
VWidth: 1197
GlyphClass: 1
UnlinkRmOvrlpSave: 1
Flags: HMW
LayerCount: 2
Fore
SplineSet
503 170 m 1
 503 150 l 1
 502 44 418 30 151 -41 c 1
 109 39 l 1
 187 55 411 113 436 152 c 1
 404 780 l 1
 484 800 l 1
 503 170 l 1
213 119 m 1
 154 100 l 1
 64 650 l 1
 143 670 l 1
 213 119 l 1
EndSplineSet
Colour: ffda6b
EndChar

StartChar: _.la.fina
Encoding: 65603 -1 67
GlifName: _.la.fina
Width: 657
VWidth: 1197
GlyphClass: 1
UnlinkRmOvrlpSave: 1
Flags: HMW
LayerCount: 2
Fore
SplineSet
503 170 m 2
 503 163 503 157 503 150 c 1
 533 116 584 100 636 100 c 2
 657 100 l 1
 656 0 l 1
 636 0 l 2
 570 0 504 22 466 66 c 1
 419 28 323 6 151 -41 c 1
 109 39 l 1
 187 55 411 113 436 152 c 1
 404 780 l 1
 484 800 l 1
 503 170 l 2
213 119 m 1
 154 100 l 1
 64 650 l 1
 143 670 l 1
 213 119 l 1
EndSplineSet
Colour: ffda6b
EndChar

StartChar: _.hamze.isol
Encoding: 65606 -1 70
GlifName: _.hamze.isol
Width: 515
VWidth: 1304
GlyphClass: 2
Flags: HMW
LayerCount: 2
Fore
SplineSet
84 258 m 0
 84 333 154 399 276 399 c 0
 302 399 330 396 360 390 c 1
 344 316 l 1
 330 319 314 320 298 320 c 0
 230 320 156 299 156 259 c 0
 156 217 208 180 247 157 c 1
 419 239 l 1
 451 170 l 1
 96 5 l 1
 64 74 l 1
 169 123 l 1
 111 163 84 212 84 258 c 0
EndSplineSet
Colour: ffda6b
EndChar

StartChar: _.keshide.medi
Encoding: 65607 -1 71
GlifName: _.keshide.medi
Width: 236
VWidth: 1304
GlyphClass: 2
Flags: HMW
LayerCount: 2
Fore
SplineSet
-12 100 m 2
 236 100 l 1
 236 0 l 1
 -12 0 l 2
 -28 0 -39 8 -45 25 c 0
 -48 34 -50 42 -50 50 c 128
 -50 58 -48 66 -45 75 c 0
 -39 92 -28 100 -12 100 c 2
EndSplineSet
Colour: ffda6b
EndChar

StartChar: _.dot.1u
Encoding: 65608 -1 72
GlifName: _.dot.1u
Width: 0
VWidth: 1304
GlyphClass: 2
Flags: HMW
LayerCount: 2
Fore
SplineSet
40 149 m 1
 144 88 l 1
 94 1 l 1
 11 49 l 2
 0 56 -4 72 3 84 c 2
 40 149 l 1
EndSplineSet
Colour: ffda6b
EndChar

StartChar: _.dot.2u
Encoding: 65609 -1 73
GlifName: _.dot.2u
Width: 0
VWidth: 1304
GlyphClass: 2
UnlinkRmOvrlpSave: 1
Flags: HMW
LayerCount: 2
Fore
SplineSet
41 146 m 1
 145 86 l 1
 95 0 l 1
 12 48 l 2
 0 54 -3 70 4 81 c 2
 41 146 l 1
211 149 m 1
 315 88 l 1
 265 1 l 1
 182 49 l 2
 171 56 167 72 174 84 c 2
 211 149 l 1
EndSplineSet
Colour: ffda6b
EndChar

StartChar: _.dot.3u
Encoding: 65610 -1 74
GlifName: _.dot.3u
Width: 0
VWidth: 1304
GlyphClass: 2
UnlinkRmOvrlpSave: 1
Flags: HMW
LayerCount: 2
Fore
SplineSet
41 146 m 1
 145 86 l 1
 95 0 l 1
 12 48 l 2
 0 54 -3 70 4 81 c 2
 41 146 l 1
211 149 m 1
 315 88 l 1
 265 1 l 1
 182 49 l 2
 171 56 167 72 174 84 c 2
 211 149 l 1
107 264 m 1
 201 210 l 1
 157 133 l 1
 81 176 l 2
 71 182 68 196 74 207 c 2
 107 264 l 1
EndSplineSet
Colour: ffda6b
EndChar

StartChar: _.dot.1d
Encoding: 65611 -1 75
GlifName: _.dot.1d
Width: 0
VWidth: 1304
GlyphClass: 2
Flags: HMW
LayerCount: 2
Fore
SplineSet
41 1 m 1
 145 -58 l 1
 95 -145 l 1
 12 -97 l 2
 0 -91 -3 -75 4 -63 c 2
 41 1 l 1
EndSplineSet
Colour: ffda6b
EndChar

StartChar: _.dot.2d
Encoding: 65612 -1 76
GlifName: _.dot.2d
Width: 0
VWidth: 1304
GlyphClass: 2
UnlinkRmOvrlpSave: 1
Flags: HMW
LayerCount: 2
Fore
SplineSet
41 4 m 1
 145 -57 l 1
 95 -143 l 1
 12 -96 l 2
 0 -89 -3 -74 4 -62 c 2
 41 4 l 1
211 5 m 1
 315 -54 l 1
 265 -142 l 1
 182 -94 l 2
 171 -88 167 -71 174 -59 c 2
 211 5 l 1
EndSplineSet
Colour: ffda6b
EndChar

StartChar: _.dot.3d
Encoding: 65613 -1 77
GlifName: _.dot.3d
Width: 0
VWidth: 1304
GlyphClass: 2
UnlinkRmOvrlpSave: 1
Flags: HMW
LayerCount: 2
Fore
SplineSet
41 -4 m 1
 145 -64 l 1
 95 -150 l 1
 12 -102 l 2
 0 -96 -3 -80 4 -69 c 2
 41 -4 l 1
211 -1 m 1
 315 -62 l 1
 265 -149 l 1
 182 -101 l 2
 171 -94 167 -79 174 -67 c 2
 211 -1 l 1
152 -147 m 1
 245 -201 l 1
 201 -278 l 1
 127 -235 l 2
 116 -229 112 -216 118 -205 c 2
 152 -147 l 1
EndSplineSet
Colour: ffda6b
EndChar

StartChar: _.num.0
Encoding: 65615 -1 79
GlifName: _.num.0
Width: 328
VWidth: 1424
GlyphClass: 2
Flags: HMW
LayerCount: 2
Fore
SplineSet
167 481 m 2
 272 375 l 2
 281 366 281 352 272 343 c 2
 196 267 l 2
 186 258 172 258 163 267 c 2
 57 373 l 2
 48 382 48 396 57 405 c 2
 133 481 l 2
 143 490 157 490 167 481 c 2
EndSplineSet
Colour: ffda6b
EndChar

StartChar: _.num.1
Encoding: 65616 -1 80
GlifName: _.num.1
Width: 259
VWidth: 1331
GlyphClass: 2
Flags: HMW
LayerCount: 2
Fore
SplineSet
128 50 m 0
 128 331 103 513 50 725 c 1
 148 806 l 1
 198 570 209 407 209 226 c 0
 209 142 206 59 205 -24 c 1
 127 -29 l 1
 127 -2 128 25 128 50 c 0
EndSplineSet
Colour: ffda6b
EndChar

StartChar: _.num.2
Encoding: 65617 -1 81
GlifName: _.num.2
Width: 516
VWidth: 1331
GlyphClass: 2
Flags: HMW
LayerCount: 2
Fore
SplineSet
128 59 m 0
 128 338 103 506 50 718 c 1
 147 799 l 1
 168 705 181 621 191 545 c 1
 213 536 236 533 258 533 c 0
 323 533 381 566 383 601 c 1
 378 752 l 1
 460 780 l 1
 466 614 l 1
 466 490 363 431 260 431 c 0
 240 431 220 434 201 438 c 1
 207 371 209 307 209 241 c 0
 209 160 207 80 205 0 c 1
 127 -20 l 1
 127 7 128 34 128 59 c 0
EndSplineSet
Colour: ffda6b
EndChar

StartChar: _.num.3
Encoding: 65618 -1 82
GlifName: _.num.3
Width: 776
VWidth: 1331
GlyphClass: 2
Flags: HMW
LayerCount: 2
Fore
SplineSet
258 533 m 0
 324 533 382 566 384 601 c 1
 378 752 l 1
 460 780 l 1
 466 614 l 2
 466 598 465 584 461 570 c 1
 490 559 521 553 549 553 c 0
 600 553 641 571 643 601 c 1
 639 752 l 1
 719 780 l 1
 726 614 l 1
 726 499 638 451 544 451 c 0
 498 451 451 463 411 484 c 1
 372 449 317 432 261 432 c 0
 241 432 221 434 202 438 c 1
 207 367 209 299 209 228 c 0
 209 151 207 76 205 0 c 1
 128 -20 l 1
 128 1 128 22 128 42 c 0
 128 331 103 502 50 718 c 1
 147 799 l 1
 168 705 181 621 190 545 c 1
 212 536 236 533 258 533 c 0
EndSplineSet
Colour: ffda6b
EndChar

StartChar: _.num.4.fa
Encoding: 65619 -1 83
GlifName: _.num.4.fa
Width: 669
VWidth: 1331
GlyphClass: 2
Flags: HMW
LayerCount: 2
Fore
SplineSet
236 513 m 1
 228 537 224 566 224 597 c 0
 224 657 240 718 281 761 c 0
 318 800 362 815 406 815 c 0
 483 815 561 769 607 729 c 1
 577 656 l 1
 520 686 471 698 430 698 c 0
 403 698 380 692 360 683 c 0
 324 666 309 634 309 594 c 0
 309 545 324 512 345 480 c 1
 364 478 384 477 403 477 c 0
 492 477 578 498 598 516 c 1
 619 434 l 1
 540 395 457 378 384 378 c 0
 308 378 242 396 202 427 c 1
 207 365 209 304 209 241 c 0
 209 160 207 80 205 0 c 1
 127 -20 l 1
 127 7 128 34 128 59 c 0
 128 338 103 506 50 718 c 1
 147 799 l 1
 167 709 180 630 189 556 c 1
 201 539 216 524 236 513 c 1
EndSplineSet
Colour: ffda6b
EndChar

StartChar: _.num.5.fa
Encoding: 65621 -1 85
GlifName: _.num.5.fa
Width: 692
VWidth: 1331
GlyphClass: 2
Flags: HMW
LayerCount: 2
Fore
SplineSet
455 6 m 1
 455 6 380 8 348 93 c 1
 343 82 311 15 242 6 c 1
 181 6 l 1
 181 6 50 3 50 151 c 1
 50 151 46 336 280 645 c 1
 343 593 l 1
 343 593 152 333 151 194 c 1
 151 194 149 127 224 127 c 1
 224 127 224 127 225 127 c 0
 235 127 305 131 305 232 c 0
 305 238 305 244 304 251 c 1
 390 273 l 1
 390 273 390 269 390 260 c 0
 390 245 391 219 396 191 c 0
 397 186 407 129 488 129 c 1
 488 129 541 128 545 177 c 1
 545 177 545 180 545 185 c 0
 545 233 529 483 197 703 c 1
 258 800 l 1
 258 800 632 575 642 188 c 1
 642 188 649 13 517 6 c 1
 455 6 l 1
EndSplineSet
Colour: ffda6b
EndChar

StartChar: _.num.6.fa
Encoding: 65623 -1 87
GlifName: _.num.6.fa
Width: 685
VWidth: 1331
GlyphClass: 2
Flags: HMW
LayerCount: 2
Fore
SplineSet
428 725 m 0
 334 725 240 658 240 603 c 0
 240 531 323 453 402 433 c 1
 462 490 530 547 612 610 c 1
 635 486 l 1
 440 346 306 226 97 -26 c 1
 50 39 l 1
 168 184 l 1
 221 246 272 303 327 361 c 1
 222 400 153 484 153 598 c 0
 153 748 281 806 383 806 c 0
 402 806 420 804 436 800 c 1
 457 722 l 1
 447 724 438 725 428 725 c 0
EndSplineSet
Colour: ffda6b
EndChar

StartChar: _.num.7
Encoding: 65625 -1 89
GlifName: _.num.7
Width: 624
VWidth: 1331
GlyphClass: 2
Flags: HMW
LayerCount: 2
Fore
SplineSet
574 700 m 1
 474 489 412 308 352 0 c 1
 276 -21 l 1
 214 300 152 485 50 700 c 1
 129 800 l 1
 231 566 274 404 312 212 c 1
 350 404 394 566 496 800 c 1
 574 700 l 1
EndSplineSet
Colour: ffda6b
EndChar

StartChar: _.num.8
Encoding: 65626 -1 90
GlifName: _.num.8
Width: 624
VWidth: 1331
GlyphClass: 2
Flags: HMW
LayerCount: 2
Fore
SplineSet
574 77 m 1
 496 -21 l 1
 394 213 350 375 312 566 c 1
 274 375 231 213 129 -21 c 1
 50 77 l 1
 152 292 214 479 276 800 c 1
 352 779 l 1
 412 470 474 288 574 77 c 1
EndSplineSet
Colour: ffda6b
EndChar

StartChar: _.num.9
Encoding: 65627 -1 91
GlifName: _.num.9
Width: 574
VWidth: 1331
GlyphClass: 2
Flags: HMW
LayerCount: 2
Fore
SplineSet
332 503 m 1
 320 588 287 690 201 690 c 0
 147 690 119 634 114 580 c 0
 114 578 114 576 114 574 c 0
 114 531 155 493 236 493 c 2
 236 493 237 493 240 493 c 0
 252 493 288 494 332 503 c 1
240 381 m 0
 150 381 50 403 50 525 c 0
 50 616 108 807 226 807 c 0
 376 807 436 587 437 470 c 0
 437 455 437 424 438 391 c 0
 454 281 475 183 524 77 c 1
 445 -21 l 1
 383 119 361 245 347 372 c 1
 343 395 l 1
 320 393 293 381 240 381 c 0
EndSplineSet
Colour: ffda6b
EndChar

StartChar: _.sing.backslash
Encoding: 65628 -1 92
GlifName: _.sing.backslash
Width: 442
VWidth: 1197
GlyphClass: 2
Flags: HMW
LayerCount: 2
Fore
SplineSet
50 720 m 1
 151 720 l 1
 392 -14 l 1
 290 -14 l 1
 50 720 l 1
EndSplineSet
Colour: ffda6b
EndChar

StartChar: _.sing.slash
Encoding: 65629 -1 93
GlifName: _.sing.slash
Width: 442
VWidth: 1197
GlyphClass: 2
Flags: HMW
LayerCount: 2
Fore
SplineSet
392 720 m 1
 151 -14 l 1
 50 -14 l 1
 290 720 l 1
 392 720 l 1
EndSplineSet
Colour: ffda6b
EndChar

StartChar: _.sing.tajob
Encoding: 65630 -1 94
GlifName: _.sing.tajob
Width: 255
VWidth: 1197
GlyphClass: 2
Flags: HMW
LayerCount: 2
Fore
SplineSet
50 81 m 1
 127 159 l 1
 205 81 l 1
 127 5 l 1
 50 81 l 1
177 756 m 1
 161 220 l 1
 94 220 l 1
 77 756 l 1
 177 756 l 1
EndSplineSet
Colour: ffda6b
EndChar

StartChar: _.sing.soal
Encoding: 65631 -1 95
GlifName: _.sing.soal
Width: 460
VWidth: 1304
GlyphClass: 2
Flags: HMW
LayerCount: 2
Fore
SplineSet
50 570 m 0
 50 573 50 576 50 579 c 0
 50 661 98 717 155 743 c 0
 177 754 202 759 229 759 c 0
 268 759 298 754 323 740 c 0
 346 726 366 708 378 687 c 0
 402 651 410 591 410 535 c 2
 410 503 l 1
 333 502 l 1
 333 535 l 2
 333 629 299 677 229 677 c 0
 183 677 155 649 139 617 c 0
 133 603 130 590 130 575 c 0
 130 535 148 512 166 487 c 0
 176 473 187 459 199 445 c 0
 237 398 268 341 268 255 c 2
 268 215 l 1
 201 215 l 1
 201 242 l 2
 201 294 184 331 163 363 c 0
 141 395 113 425 89 457 c 0
 69 487 50 520 50 570 c 0
157 77 m 1
 235 155 l 1
 312 77 l 1
 235 0 l 1
 157 77 l 1
EndSplineSet
Colour: ffda6b
EndChar

StartChar: _.sing.beezafeh
Encoding: 65632 -1 96
GlifName: _.sing.beezafeh
Width: 494
VWidth: 1352
GlyphClass: 2
Flags: HMW
LayerCount: 2
Fore
SplineSet
283 495 m 1
 283 335 l 1
 444 335 l 1
 444 263 l 1
 283 263 l 1
 283 103 l 1
 212 103 l 1
 212 263 l 1
 50 263 l 1
 50 335 l 1
 212 335 l 1
 212 495 l 1
 283 495 l 1
EndSplineSet
Colour: ffda6b
EndChar

StartChar: _.sing.menha
Encoding: 65633 -1 97
GlifName: _.sing.menha
Width: 486
VWidth: 0
GlyphClass: 2
Flags: HMW
LayerCount: 2
Fore
SplineSet
436 215 m 1
 50 215 l 1
 50 287 l 1
 436 287 l 1
 436 215 l 1
243 444 m 0
 271 444 292 424 292 396 c 0
 292 369 270 348 243 348 c 0
 217 348 195 371 195 396 c 0
 195 422 216 444 243 444 c 0
195 106 m 0
 195 131 217 154 243 154 c 0
 270 154 292 133 292 106 c 0
 292 77 271 58 243 58 c 0
 216 58 195 79 195 106 c 0
EndSplineSet
Colour: ffda6b
EndChar

StartChar: _.sing.virgul
Encoding: 65635 -1 99
GlifName: _.sing.virgul
Width: 257
VWidth: 1197
GlyphClass: 2
Flags: HMW
LayerCount: 2
Fore
SplineSet
130 4 m 1
 94 40 50 65 50 136 c 0
 52 211 104 267 147 310 c 1
 194 262 l 1
 182 250 167 233 157 219 c 0
 147 207 136 191 136 170 c 0
 136 142 164 123 180 107 c 0
 189 98 198 91 207 81 c 1
 130 4 l 1
EndSplineSet
Colour: ffda6b
EndChar

StartChar: _.sing.dot_virgul
Encoding: 65636 -1 100
GlifName: _.sing.dot_virgul
Width: 257
VWidth: 1304
GlyphClass: 2
Flags: HMW
LayerCount: 2
Fore
SplineSet
152 410 m 0
 171 393 190 377 207 358 c 1
 129 280 l 1
 119 290 110 300 100 309 c 0
 74 335 50 361 50 413 c 0
 51 444 61 473 79 503 c 0
 97 533 120 560 148 587 c 1
 194 539 l 1
 176 518 155 500 143 473 c 0
 139 466 136 457 136 450 c 0
 136 448 135 445 135 443 c 0
 135 429 143 419 152 410 c 0
52 136 m 1
 129 214 l 1
 207 136 l 1
 129 59 l 1
 52 136 l 1
EndSplineSet
Colour: ffda6b
EndChar

StartChar: _.sing.2noqte
Encoding: 65637 -1 101
GlifName: _.sing.2noqte
Width: 255
VWidth: 1352
GlyphClass: 2
Flags: HMW
LayerCount: 2
Fore
SplineSet
50 358 m 1
 127 436 l 1
 205 358 l 1
 127 280 l 1
 50 358 l 1
50 136 m 1
 127 214 l 1
 205 136 l 1
 127 59 l 1
 50 136 l 1
EndSplineSet
Colour: ffda6b
EndChar

StartChar: _.sing.noqte
Encoding: 65638 -1 102
GlifName: _.sing.noqte
Width: 254
VWidth: 1352
GlyphClass: 2
Flags: HMW
LayerCount: 2
Fore
SplineSet
50 136 m 1
 128 214 l 1
 204 136 l 1
 128 59 l 1
 50 136 l 1
EndSplineSet
Colour: ffda6b
EndChar

StartChar: _.sing.gheiomeh.right
Encoding: 65639 -1 103
GlifName: _.sing.gheiomeh.right
Width: 425
VWidth: 1352
GlyphClass: 2
Flags: HMW
LayerCount: 2
Fore
SplineSet
226 484 m 1
 171 421 132 344 132 241 c 0
 132 137 171 62 226 -1 c 1
 172 -48 l 1
 109 28 50 118 50 241 c 0
 50 291 61 341 82 389 c 0
 104 438 134 485 172 529 c 1
 226 484 l 1
325 -40 m 1
 264 36 212 118 212 241 c 0
 212 291 220 339 240 385 c 0
 260 431 288 477 325 521 c 1
 375 480 l 1
 321 415 286 345 286 241 c 0
 286 136 321 66 375 2 c 1
 325 -40 l 1
EndSplineSet
Colour: ffda6b
EndChar

StartChar: _.sing.gheiomeh.left
Encoding: 65640 -1 104
GlifName: _.sing.gheiomeh.left
Width: 426
VWidth: 1352
GlyphClass: 2
Flags: HMW
LayerCount: 2
Fore
SplineSet
50 2 m 1
 104 66 139 136 139 241 c 0
 139 345 104 415 50 480 c 1
 99 521 l 1
 136 477 164 431 184 385 c 0
 204 339 214 291 214 241 c 0
 214 191 204 143 184 97 c 0
 164 50 136 6 99 -40 c 1
 50 2 l 1
376 241 m 0
 376 191 365 141 343 92 c 0
 321 44 291 -2 253 -48 c 1
 199 -3 l 1
 232 36 255 76 270 117 c 0
 286 159 294 199 294 241 c 0
 294 283 286 323 270 364 c 0
 255 405 232 446 199 484 c 1
 253 529 l 1
 291 485 321 438 343 389 c 0
 365 341 376 291 376 241 c 0
EndSplineSet
Colour: ffda6b
EndChar

StartChar: _.sing.parantez.right
Encoding: 65641 -1 105
GlifName: _.sing.parantez.right
Width: 310
VWidth: 1352
GlyphClass: 2
Flags: HMW
LayerCount: 2
Fore
SplineSet
134 299 m 0
 134 225 148 162 169 106 c 0
 192 41 224 -13 260 -65 c 1
 202 -106 l 1
 165 -56 130 11 102 74 c 0
 75 138 50 213 50 299 c 0
 50 385 75 461 102 525 c 0
 117 559 133 593 150 623 c 0
 168 654 185 680 202 705 c 1
 260 665 l 1
 242 638 224 610 208 582 c 0
 167 505 134 414 134 299 c 0
EndSplineSet
Colour: ffda6b
EndChar

StartChar: _.sing.parantez.left
Encoding: 65642 -1 106
GlifName: _.sing.parantez.left
Width: 309
VWidth: 1352
GlyphClass: 2
Flags: HMW
LayerCount: 2
Fore
SplineSet
175 299 m 0
 175 460 115 567 50 665 c 1
 108 705 l 1
 124 680 141 654 159 624 c 0
 193 562 224 491 244 416 c 0
 254 377 259 338 259 299 c 0
 259 213 234 138 207 74 c 0
 192 40 176 6 159 -25 c 0
 141 -56 124 -83 108 -106 c 1
 50 -65 l 1
 116 31 175 140 175 299 c 0
EndSplineSet
Colour: ffda6b
EndChar

StartChar: _.sing.koroshe.right
Encoding: 65645 -1 109
GlifName: _.sing.koroshe.right
Width: 276
VWidth: 1197
GlyphClass: 2
Flags: HMW
LayerCount: 2
Fore
SplineSet
50 -57 m 1
 50 795 l 1
 226 795 l 1
 226 725 l 1
 120 725 l 1
 120 13 l 1
 226 13 l 1
 226 -57 l 1
 50 -57 l 1
EndSplineSet
Colour: ffda6b
EndChar

StartChar: _.sing.koroshe.left
Encoding: 65646 -1 110
GlifName: _.sing.koroshe.left
Width: 276
VWidth: 1197
GlyphClass: 2
Flags: HMW
LayerCount: 2
Fore
SplineSet
50 -57 m 1
 50 13 l 1
 156 13 l 1
 156 725 l 1
 50 725 l 1
 50 795 l 1
 226 795 l 1
 226 -57 l 1
 50 -57 l 1
EndSplineSet
Colour: ffda6b
EndChar

StartChar: _.sing.akolad.right
Encoding: 65647 -1 111
GlifName: _.sing.akolad.right
Width: 327
VWidth: 1197
GlyphClass: 2
Flags: HMW
LayerCount: 2
Fore
SplineSet
198 16 m 0
 198 -30 215 -54 263 -54 c 2
 277 -54 l 1
 277 -125 l 1
 245 -125 l 2
 164 -125 135 -84 132 -9 c 0
 132 14 130 38 130 63 c 2
 130 132 l 1
 128 179 120 221 97 246 c 0
 87 260 71 266 50 266 c 1
 50 289 50 313 50 336 c 1
 71 336 87 344 97 356 c 0
 108 370 117 385 122 406 c 0
 127 426 129 448 130 471 c 1
 130 540 l 2
 130 565 132 589 132 612 c 0
 134 659 147 692 176 713 c 0
 192 723 215 727 245 727 c 2
 277 727 l 1
 277 657 l 1
 263 657 l 2
 215 657 198 633 198 587 c 0
 197 571 197 551 197 528 c 0
 197 502 195 477 194 452 c 0
 191 383 177 320 126 301 c 1
 177 282 191 220 194 151 c 0
 195 126 197 101 197 75 c 0
 197 52 197 32 198 16 c 0
EndSplineSet
Colour: ffda6b
EndChar

StartChar: _.sing.akolad.left
Encoding: 65648 -1 112
GlifName: _.sing.akolad.left
Width: 327
VWidth: 1197
GlyphClass: 2
Flags: HMW
LayerCount: 2
Fore
SplineSet
129 587 m 0
 126 634 113 657 62 657 c 2
 50 657 l 1
 50 727 l 1
 82 727 l 2
 138 727 169 709 183 671 c 0
 190 654 194 634 194 612 c 0
 195 589 195 565 195 540 c 0
 195 495 196 444 205 406 c 0
 214 369 233 336 277 336 c 1
 277 313 277 289 277 266 c 1
 213 266 197 196 197 130 c 0
 196 107 195 85 195 63 c 0
 195 38 195 14 194 -9 c 0
 194 -83 160 -125 82 -125 c 2
 50 -125 l 1
 50 -54 l 1
 62 -54 l 2
 113 -54 126 -31 129 16 c 0
 129 32 130 52 130 75 c 0
 130 171 131 276 201 301 c 1
 166 313 150 346 141 385 c 0
 131 425 130 476 130 528 c 0
 130 551 129 571 129 587 c 0
EndSplineSet
Colour: ffda6b
EndChar

StartChar: _.mark.maad
Encoding: 65649 -1 113
GlifName: _.mark.maad
Width: 0
VWidth: 1352
GlyphClass: 2
Flags: HMW
LayerCount: 2
Fore
SplineSet
217 45 m 0
 172 45 126 51 86 65 c 1
 75 45 65 22 54 0 c 1
 0 26 l 1
 32 92 l 2
 44 119 64 138 89 138 c 0
 95 138 101 137 107 135 c 0
 141 125 180 120 221 120 c 0
 241 120 262 121 282 124 c 0
 309 129 334 141 360 148 c 1
 366 74 l 1
 340 65 315 54 288 50 c 0
 264 47 241 45 217 45 c 0
EndSplineSet
Colour: ffda6b
EndChar

StartChar: _.mark.fatheh
Encoding: 65650 -1 114
GlifName: _.mark.fatheh
Width: 0
VWidth: 2310
GlyphClass: 2
Flags: HMW
LayerCount: 2
Fore
SplineSet
256 85 m 1
 278 34 l 1
 24 -85 l 1
 0 -35 l 1
 256 85 l 1
EndSplineSet
Colour: ffda6b
EndChar

StartChar: _.mark.kasreh
Encoding: 65651 -1 115
GlifName: _.mark.kasreh
Width: 0
VWidth: 2384
GlyphClass: 2
Flags: HMW
LayerCount: 2
Fore
SplineSet
256 -75 m 1
 278 -126 l 1
 24 -245 l 1
 0 -195 l 1
 256 -75 l 1
EndSplineSet
Colour: ffda6b
EndChar

StartChar: _.mark.zameh
Encoding: 65652 -1 116
GlifName: _.mark.zameh
Width: 0
VWidth: 2277
GlyphClass: 2
Flags: HMW
LayerCount: 2
Fore
SplineSet
203 280 m 0
 252 276 278 241 280 194 c 0
 280 192 280 190 280 188 c 0
 280 130 238 95 194 74 c 2
 24 -5 l 1
 0 44 l 1
 143 111 l 1
 127 131 113 153 113 186 c 0
 113 223 129 248 152 264 c 0
 167 275 183 280 203 280 c 0
188 131 m 1
 210 142 226 158 226 188 c 0
 226 205 212 221 195 221 c 0
 175 221 158 209 158 188 c 0
 158 161 172 149 185 134 c 2
 188 131 l 1
EndSplineSet
Colour: ffda6b
EndChar

StartChar: _.mark.tanvin_fatheh
Encoding: 65653 -1 117
GlifName: _.mark.tanvin_fatheh
Width: 0
VWidth: 2280
GlyphClass: 2
Flags: HMW
LayerCount: 2
Fore
SplineSet
256 289 m 1
 278 240 l 1
 23 120 l 1
 0 170 l 1
 256 289 l 1
256 168 m 1
 278 118 l 1
 23 0 l 1
 0 49 l 1
 256 168 l 1
EndSplineSet
Colour: ffda6b
EndChar

StartChar: _.mark.tanvin_kasreh
Encoding: 65654 -1 118
GlifName: _.mark.tanvin_kasreh
Width: 0
VWidth: 2413
GlyphClass: 2
Flags: HMW
LayerCount: 2
Fore
SplineSet
257 -1 m 1
 280 -51 l 1
 24 -170 l 1
 0 -120 l 1
 257 -1 l 1
257 -122 m 1
 280 -171 l 1
 24 -291 l 1
 0 -240 l 1
 257 -122 l 1
EndSplineSet
Colour: ffda6b
EndChar

StartChar: _.mark.tanvin_zameh
Encoding: 65655 -1 119
GlifName: _.mark.tanvin_zameh
Width: 0
VWidth: 2273
GlyphClass: 2
Flags: HMW
LayerCount: 2
Fore
SplineSet
109 119 m 0
 109 154 91 178 59 178 c 0
 39 176 32 171 17 162 c 0
 11 158 5 155 0 151 c 1
 25 111 l 1
 32 115 39 118 44 123 c 0
 49 125 54 127 59 127 c 0
 70 127 73 113 73 101 c 0
 72 92 69 80 65 66 c 1
 106 90 l 1
 108 101 109 111 109 119 c 0
131 193 m 0
 131 247 168 288 222 288 c 0
 260 285 280 261 292 232 c 0
 294 221 297 212 297 202 c 0
 297 200 297 198 297 196 c 0
 297 171 290 150 276 132 c 0
 261 111 240 93 212 81 c 2
 42 2 l 1
 19 52 l 1
 196 134 l 2
 212 141 225 150 232 160 c 0
 241 169 244 180 244 194 c 0
 244 211 230 229 213 229 c 0
 194 229 176 214 176 196 c 0
 176 170 190 156 203 141 c 0
 210 134 218 127 227 117 c 1
 186 90 l 1
 181 96 175 101 170 107 c 0
 165 113 160 119 155 125 c 0
 138 144 131 164 131 193 c 0
EndSplineSet
Colour: ffda6b
EndChar

StartChar: _.mark.tashdid
Encoding: 65656 -1 120
GlifName: _.mark.tashdid
Width: 0
VWidth: 1833
GlyphClass: 2
Flags: HMW
LayerCount: 2
Fore
SplineSet
307 239 m 1
 309 213 312 187 312 160 c 0
 312 155 312 150 312 145 c 0
 312 140 312 136 311 132 c 0
 311 97 285 80 264 63 c 0
 252 54 241 50 230 50 c 0
 199 50 173 74 154 91 c 1
 140 73 113 55 81 55 c 0
 26 55 0 101 0 160 c 0
 0 187 3 213 5 239 c 1
 50 234 l 1
 49 223 48 210 48 199 c 0
 47 187 45 176 45 165 c 0
 45 137 55 103 81 103 c 0
 96 103 107 109 117 117 c 0
 126 121 128 131 134 140 c 0
 141 161 145 181 151 208 c 0
 153 217 156 229 158 239 c 1
 198 231 l 1
 196 222 193 212 193 203 c 0
 189 188 186 176 184 164 c 0
 182 153 178 142 176 132 c 1
 189 119 207 100 229 100 c 0
 238 100 246 102 252 108 c 0
 261 117 267 121 267 134 c 0
 267 168 265 203 261 234 c 1
 307 239 l 1
EndSplineSet
Colour: ffda6b
EndChar

StartChar: _.mark.hamze
Encoding: 65657 -1 121
GlifName: _.mark.hamze
Width: 0
VWidth: 1841
GlyphClass: 2
Flags: HMW
LayerCount: 2
Fore
SplineSet
155 334 m 0
 172 334 191 331 213 326 c 1
 202 273 l 1
 186 277 171 278 157 278 c 0
 114 275 87 261 67 235 c 1
 73 221 81 208 92 193 c 0
 103 179 117 168 132 159 c 1
 256 218 l 1
 280 167 l 1
 24 49 l 1
 0 98 l 1
 76 134 l 1
 66 141 59 150 52 159 c 0
 42 174 27 194 27 220 c 0
 27 224 26 227 26 231 c 0
 26 248 30 263 37 274 c 0
 39 283 47 291 58 300 c 0
 83 321 114 334 155 334 c 0
EndSplineSet
Colour: ffda6b
EndChar

StartChar: _.mark.sakon
Encoding: 65658 -1 122
GlifName: _.mark.sakon
Width: 0
VWidth: 2099
GlyphClass: 2
Flags: HMW
LayerCount: 2
Fore
SplineSet
0 145 m 0
 0 182 25 210 51 223 c 0
 61 227 71 229 83 229 c 0
 123 229 144 205 158 178 c 0
 163 167 164 156 164 145 c 0
 164 105 142 80 115 66 c 0
 104 62 94 60 83 60 c 0
 44 60 19 84 8 112 c 0
 3 122 0 133 0 145 c 0
43 144 m 0
 43 124 60 107 80 107 c 0
 102 107 119 123 119 144 c 0
 119 164 101 181 80 181 c 0
 61 181 43 163 43 144 c 0
EndSplineSet
Colour: ffda6b
EndChar

StartChar: _.mark.alef
Encoding: 65659 -1 123
GlifName: _.mark.alef
Width: 0
VWidth: 2091
GlyphClass: 2
Flags: HMW
LayerCount: 2
Fore
SplineSet
89 26 m 1
 42 26 l 1
 42 112 28 167 0 245 c 1
 52 263 l 1
 83 178 89 120 89 26 c 1
EndSplineSet
Colour: ffda6b
EndChar

StartChar: _.sing.momaiez
Encoding: 65660 -1 124
GlifName: _.sing.momaiez
Width: 364
VWidth: 1352
GlyphClass: 2
Flags: HMW
LayerCount: 2
Fore
SplineSet
271 303 m 128
 284 303 299 298 314 289 c 1
 283 58 219 -109 120 -212 c 0
 111 -221 101 -226 91 -226 c 0
 78 -226 64 -219 50 -205 c 1
 152 -92 218 71 249 285 c 0
 250 297 258 303 271 303 c 128
EndSplineSet
Colour: ffda6b
EndChar

StartChar: _.sing.hezare
Encoding: 65661 -1 125
GlifName: _.sing.hezare
Width: 262
VWidth: 1197
GlyphClass: 2
Flags: HMW
LayerCount: 2
Fore
SplineSet
50 828 m 0
 50 865 69 883 107 884 c 0
 118 884 129 878 138 866 c 128
 147 854 152 842 152 830 c 0
 152 818 148 808 139 800 c 1
 187 724 212 659 212 608 c 0
 212 579 211 559 208 559 c 0
 197 559 191 560 189 561 c 0
 186 631 157 705 103 783 c 1
 87 783 l 2
 79 783 70 788 62 799 c 128
 54 810 50 819 50 828 c 0
EndSplineSet
Colour: ffda6b
EndChar

StartChar: _.sing.darsad
Encoding: 65662 -1 126
GlifName: _.sing.darsad
Width: 569
VWidth: 1197
GlyphClass: 2
Flags: HMW
LayerCount: 2
Fore
SplineSet
519 139 m 0
 519 131 502 102 467 52 c 1
 394 101 353 128 345 132 c 1
 364 168 385 202 408 234 c 1
 482 191 519 159 519 139 c 0
129 763 m 1
 204 723 241 695 241 678 c 0
 241 661 224 629 190 580 c 1
 119 629 78 656 68 661 c 1
 88 701 108 735 129 763 c 1
70 4 m 0
 57 4 50 12 50 28 c 0
 50 44 54 56 61 64 c 0
 212 295 339 530 441 767 c 0
 448 782 457 790 470 790 c 0
 491 790 502 779 502 756 c 2
 502 752 l 1
 472 667 418 548 339 396 c 0
 260 244 185 123 112 33 c 0
 97 14 84 4 72 4 c 0
 71 4 71 4 70 4 c 0
EndSplineSet
Colour: ffda6b
EndChar

StartChar: _.sing.mosavi
Encoding: 65663 -1 127
GlifName: _.sing.mosavi
Width: 488
VWidth: 1197
GlyphClass: 2
Flags: HMW
LayerCount: 2
Fore
SplineSet
438 300 m 1
 50 300 l 1
 50 370 l 1
 438 370 l 1
 438 300 l 1
438 124 m 1
 50 124 l 1
 50 194 l 1
 438 194 l 1
 438 124 l 1
EndSplineSet
Colour: ffda6b
EndChar

StartChar: _.sing.5par
Encoding: 65664 -1 128
GlifName: _.sing.5par
Width: 503
VWidth: 1197
GlyphClass: 2
Flags: HMW
LayerCount: 2
Fore
SplineSet
287 714 m 1
 287 660 l 2
 287 624 285 588 281 555 c 1
 313 566 348 583 379 593 c 2
 431 609 l 1
 453 543 l 1
 420 532 388 521 352 512 c 0
 335 507 316 503 299 498 c 1
 311 484 323 472 334 458 c 0
 358 428 376 403 398 373 c 1
 341 332 l 1
 320 361 299 388 279 418 c 0
 270 433 261 448 252 463 c 1
 232 434 214 403 194 375 c 2
 162 332 l 1
 106 373 l 1
 137 417 l 1
 148 429 158 443 170 458 c 0
 181 472 192 484 203 498 c 1
 170 508 134 514 102 525 c 2
 50 543 l 1
 73 609 l 1
 107 598 139 589 172 575 c 0
 188 569 206 561 222 555 c 1
 221 573 219 591 218 609 c 0
 218 626 217 644 217 660 c 2
 217 714 l 1
 287 714 l 1
EndSplineSet
Colour: ffda6b
EndChar

StartChar: _.beh_k.init
Encoding: 65665 -1 129
GlifName: _.beh_k.init
Width: 384
VWidth: 1197
GlyphClass: 2
UnlinkRmOvrlpSave: 1
Flags: HMW
LayerCount: 2
Fore
SplineSet
227 26 m 0
 228 26 l 0
 282 51 320 92 320 150 c 2
 320 170 l 2
 320 173 320 176 320 179 c 0
 320 247 295 331 253 429 c 1
 185 356 l 1
 223 272 239 203 244 149 c 1
 218 121 173 100 89 100 c 2
 0 100 l 1
 0 0 l 1
 30 0 59 0 89 0 c 0
 139 0 188 9 227 26 c 0
0 100 m 1
 0 0 l 1
 -26 0 -50 24 -50 50 c 0
 -50 76 -26 100 0 100 c 1
EndSplineSet
Colour: ffda6b
EndChar

StartChar: _.beh_k.medi
Encoding: 65666 -1 130
GlifName: _.beh_k.medi
Width: 466
VWidth: 1304
GlyphClass: 2
UnlinkRmOvrlpSave: 1
Flags: HMW
LayerCount: 2
Fore
SplineSet
0 100 m 2
 70 100 l 2
 148 100 198 116 226 141 c 1
 226 320 l 1
 301 340 l 1
 301 150 l 1
 327 120 380 100 466 100 c 1
 465 0 l 1
 383 0 312 23 271 70 c 1
 230 23 152 0 70 0 c 2
 0 0 l 2
 -25 0 -50 24 -50 50 c 0
 -50 76 -25 100 0 100 c 2
EndSplineSet
Colour: ffda6b
EndChar

StartChar: _.sing.3noqte
Encoding: 65667 -1 131
GlifName: _.sing.3noqte
Width: 767
VWidth: 1304
GlyphClass: 2
Flags: HMW
LayerCount: 2
Fore
SplineSet
50 136 m 1
 127 214 l 1
 205 136 l 1
 127 59 l 1
 50 136 l 1
300 136 m 1
 377 214 l 1
 454 136 l 1
 377 59 l 1
 300 136 l 1
562 136 m 1
 640 214 l 1
 717 136 l 1
 640 59 l 1
 562 136 l 1
EndSplineSet
Colour: ffda6b
EndChar

StartChar: s.khat_tire
Encoding: 8208 8208 142
GlifName: s.khat_tire
Width: 504
VWidth: 0
GlyphClass: 2
Flags: HMW
LayerCount: 2
Fore
SplineSet
55 229 m 1
 55 307 l 1
 451 307 l 1
 451 229 l 1
 55 229 l 1
EndSplineSet
Colour: d7d7d7
EndChar

StartChar: s.zwj
Encoding: 8205 8205 178
GlifName: s.zwj
Width: 0
VWidth: 1331
GlyphClass: 2
Flags: HMW
LayerCount: 2
Fore
SplineSet
25 -327 m 1
 -25 -327 l 1
 -25 579 l 1
 -111 491 l 1
 -141 521 l 1
 -30 631 l 1
 -141 740 l 1
 -111 772 l 1
 0 660 l 1
 111 772 l 1
 141 740 l 1
 30 631 l 1
 141 521 l 1
 111 491 l 1
 25 579 l 1
 25 -327 l 1
EndSplineSet
Colour: d7d7d7
EndChar

StartChar: s.tagsim
Encoding: 247 247 186
GlifName: s.tagsim
Width: 564
VWidth: 1278
GlyphClass: 2
Flags: HMW
LayerCount: 2
Fore
SplineSet
59 352 m 1
 59 429 l 1
 506 429 l 1
 506 352 l 1
 59 352 l 1
234 204 m 1
 234 299 l 1
 330 299 l 1
 330 204 l 1
 234 204 l 1
234 482 m 1
 234 577 l 1
 330 577 l 1
 330 482 l 1
 234 482 l 1
EndSplineSet
Colour: d7d7d7
EndChar

StartChar: s.zwnj
Encoding: 8204 8204 219
GlifName: s.zwnj
Width: 0
VWidth: 1331
GlyphClass: 2
Flags: HMW
LayerCount: 2
Fore
SplineSet
-25 -308 m 1
 -25 710 l 1
 25 710 l 1
 25 -308 l 1
 -25 -308 l 1
EndSplineSet
Colour: d7d7d7
EndChar

StartChar: s.dotted_circle
Encoding: 9676 9676 224
GlifName: s.dotted_circle
Width: 576
VWidth: 1890
GlyphClass: 2
Flags: HMW
LayerCount: 2
Fore
SplineSet
60 181 m 128
 60 196 67 203 82 203 c 128
 97 203 104 196 104 182 c 2
 104 180 l 2
 104 166 97 159 82 159 c 128
 67 159 60 166 60 181 c 128
76 103 m 128
 76 118 83 126 98 126 c 128
 113 126 120 118 120 103 c 128
 120 88 113 80 98 80 c 128
 83 80 76 88 76 103 c 128
76 259 m 128
 76 274 83 282 98 282 c 128
 113 282 120 274 120 259 c 128
 120 244 113 236 99 236 c 0
 84 236 76 244 76 259 c 128
120 34 m 128
 120 49 127 56 142 57 c 0
 157 56 164 49 165 34 c 0
 164 19 157 12 142 12 c 128
 127 12 120 19 120 34 c 128
120 326 m 128
 120 341 127 348 142 349 c 0
 157 348 164 341 165 326 c 0
 164 311 157 304 142 304 c 128
 127 304 120 311 120 326 c 128
187 -8 m 128
 187 7 195 14 210 14 c 128
 225 14 233 7 233 -8 c 128
 233 -23 225 -30 210 -30 c 128
 195 -30 187 -23 187 -8 c 128
187 372 m 128
 187 387 195 394 210 394 c 128
 225 394 233 387 233 372 c 128
 233 357 225 350 210 350 c 128
 195 350 187 357 187 372 c 128
310 -26 m 128
 310 -41 303 -48 288 -48 c 128
 273 -48 266 -41 265 -26 c 0
 266 -11 273 -4 288 -3 c 0
 303 -4 310 -11 310 -26 c 128
288 410 m 128
 303 410 310 403 310 388 c 128
 310 373 303 366 288 365 c 0
 273 366 266 373 265 388 c 0
 266 403 273 410 288 410 c 128
344 -8 m 0
 344 7 352 14 367 14 c 128
 382 14 390 7 390 -8 c 0
 390 -23 382 -30 367 -31 c 0
 352 -30 344 -23 344 -8 c 0
344 372 m 0
 344 387 352 394 367 394 c 128
 382 394 390 387 390 372 c 0
 390 357 382 350 367 349 c 0
 352 350 344 357 344 372 c 0
412 34 m 128
 412 49 419 56 434 57 c 0
 449 56 456 49 456 34 c 128
 456 19 449 12 434 12 c 128
 419 12 412 19 412 34 c 128
412 326 m 128
 412 341 419 348 434 349 c 0
 449 348 456 341 456 326 c 128
 456 311 449 304 434 304 c 128
 419 304 412 311 412 326 c 128
456 103 m 128
 456 118 463 126 478 126 c 0
 493 126 500 118 501 103 c 0
 500 88 493 80 478 80 c 0
 463 80 456 88 456 103 c 128
456 259 m 128
 456 274 463 282 478 282 c 0
 493 282 500 274 501 259 c 0
 500 244 493 236 478 236 c 0
 463 236 456 244 456 259 c 128
472 181 m 128
 472 196 479 203 494 203 c 128
 509 203 516 196 517 182 c 1
 517 180 l 1
 516 166 509 159 494 159 c 128
 479 159 472 166 472 181 c 128
EndSplineSet
Colour: d7d7d7
EndChar

StartChar: s.figure_dash
Encoding: 8210 8210 228
GlifName: s.figure_dash
Width: 600
VWidth: 0
GlyphClass: 2
Flags: HMW
LayerCount: 2
Fore
SplineSet
55 229 m 1
 55 307 l 1
 547 307 l 1
 547 229 l 1
 55 229 l 1
EndSplineSet
Colour: d7d7d7
EndChar

StartChar: s.khat_amoodi
Encoding: 124 124 259
GlifName: s.khat_amoodi
Width: 222
VWidth: 1331
GlyphClass: 2
Flags: HMW
LayerCount: 2
Fore
SplineSet
88 158 m 1
 136 158 l 1
 136 -236 l 1
 88 -236 l 1
 88 158 l 1
88 290 m 1
 88 684 l 1
 136 684 l 1
 136 290 l 1
 88 290 l 1
EndSplineSet
Colour: d7d7d7
EndChar

StartChar: s.em_dash
Encoding: 8212 8212 267
GlifName: s.em_dash
Width: 1200
VWidth: 1175
GlyphClass: 2
Flags: HMW
LayerCount: 2
Fore
SplineSet
55 229 m 1
 55 307 l 1
 1147 307 l 1
 1147 229 l 1
 55 229 l 1
EndSplineSet
Colour: d7d7d7
EndChar

StartChar: s.Setareh
Encoding: 42 42 281
GlifName: s.S_etareh
Width: 455
VWidth: 1331
GlyphClass: 2
Flags: HMW
LayerCount: 2
Fore
SplineSet
33 492 m 2
 33 522 l 2
 33 524 36 527 42 532 c 128
 48 537 53 539 55 539 c 2
 138 539 l 1
 79 598 l 1
 72 602 69 607 69 612 c 0
 69 617 71 624 76 631 c 1
 98 649 l 1
 101 652 105 654 110 654 c 0
 115 654 121 651 126 645 c 2
 189 585 l 1
 189 677 l 2
 189 680 191 683 196 688 c 128
 201 693 204 695 207 695 c 2
 236 695 l 2
 248 695 254 689 254 677 c 2
 254 586 l 1
 318 649 l 1
 323 656 327 660 330 660 c 0
 333 660 340 658 352 654 c 1
 366 631 l 1
 375 626 375 617 366 602 c 1
 306 539 l 1
 396 539 l 2
 399 539 403 536 408 532 c 128
 413 528 416 525 416 522 c 2
 416 492 l 2
 416 488 414 484 409 479 c 128
 404 474 400 472 396 472 c 2
 299 472 l 1
 366 413 l 1
 373 401 373 389 366 378 c 0
 365 377 363 375 360 372 c 128
 357 369 352 366 348 362 c 128
 344 358 339 356 333 356 c 0
 327 356 322 358 318 362 c 2
 254 422 l 1
 254 337 l 2
 254 324 248 318 236 318 c 2
 207 318 l 2
 202 318 198 320 194 324 c 128
 190 328 189 332 189 337 c 2
 189 422 l 1
 132 362 l 1
 127 359 121 357 114 357 c 0
 107 357 100 362 90 371 c 128
 80 380 75 388 75 395 c 0
 75 402 78 408 83 413 c 2
 140 472 l 1
 55 472 l 2
 40 472 33 479 33 492 c 2
EndSplineSet
Colour: d7d7d7
EndChar

StartChar: s.bullet
Encoding: 8226 8226 282
GlifName: s.bullet
Width: 602
VWidth: 1331
GlyphClass: 2
Flags: HMW
LayerCount: 2
Fore
SplineSet
532 432 m 0
 532 307 427 202 302 202 c 0
 189 202 77 305 77 410 c 0
 77 564 184 650 295 650 c 4
 442 650 532 564 532 432 c 0
EndSplineSet
Colour: d7d7d7
EndChar

StartChar: s.manfi
Encoding: 45 45 287
GlifName: s.manfi
Width: 504
VWidth: 1331
GlyphClass: 2
Flags: HMW
LayerCount: 2
Fore
SplineSet
55 229 m 1
 55 307 l 1
 451 307 l 1
 451 229 l 1
 55 229 l 1
EndSplineSet
Colour: d7d7d7
EndChar

StartChar: s.en_dash
Encoding: 8211 8211 314
GlifName: s.en_dash
Width: 600
VWidth: 1175
GlyphClass: 2
Flags: HMW
LayerCount: 2
Fore
SplineSet
55 229 m 1
 55 307 l 1
 547 307 l 1
 547 229 l 1
 55 229 l 1
EndSplineSet
Colour: d7d7d7
EndChar

StartChar: s.horizontal_bar
Encoding: 8213 8213 320
GlifName: s.horizontal_bar
Width: 2400
VWidth: 1175
GlyphClass: 2
Flags: HMW
LayerCount: 2
Fore
SplineSet
55 229 m 1
 55 307 l 1
 2347 307 l 1
 2347 229 l 1
 55 229 l 1
EndSplineSet
Colour: d7d7d7
EndChar

StartChar: s.lrm
Encoding: 8206 8206 321
GlifName: s.lrm
Width: 0
VWidth: 1331
GlyphClass: 2
Flags: HMW
LayerCount: 2
Fore
SplineSet
-25 -308 m 1
 -25 676 l 1
 196 676 l 1
 106 759 l 1
 138 790 l 1
 280 651 l 1
 138 510 l 1
 106 544 l 1
 196 628 l 1
 22 628 l 1
 22 -308 l 1
 -25 -308 l 1
EndSplineSet
Colour: d7d7d7
EndChar

StartChar: s.zarb
Encoding: 215 215 335
GlifName: s.zarb
Width: 520
VWidth: 1279
GlyphClass: 2
Flags: HMW
LayerCount: 2
Fore
SplineSet
59 246 m 1
 204 391 l 1
 60 536 l 1
 115 593 l 1
 261 448 l 1
 405 593 l 1
 461 536 l 1
 317 391 l 1
 462 247 l 1
 405 190 l 1
 260 336 l 1
 115 190 l 1
 59 246 l 1
EndSplineSet
Colour: d7d7d7
EndChar

StartChar: s.rlm
Encoding: 8207 8207 350
GlifName: s.rlm
Width: 0
VWidth: 1331
GlyphClass: 2
Flags: HMW
LayerCount: 2
Fore
SplineSet
22 676 m 1
 22 -308 l 1
 -25 -308 l 1
 -25 628 l 1
 -196 628 l 1
 -108 544 l 1
 -138 510 l 1
 -280 651 l 1
 -138 790 l 1
 -108 759 l 1
 -196 676 l 1
 22 676 l 1
EndSplineSet
Colour: d7d7d7
EndChar

StartChar: _.mark.he_yeh
Encoding: 65668 -1 404
GlifName: _.mark.he_yeh
Width: 209
VWidth: 1304
GlyphClass: 1
UnlinkRmOvrlpSave: 1
Flags: HMW
LayerCount: 2
Fore
SplineSet
192 89 m 2
 192 90 l 2
 192 95 184 100 167 104 c 128
 150 108 142 109 141 109 c 0
 122 114 113 124 113 141 c 0
 113 176 135 207 178 234 c 0
 191 241 202 245 210 245 c 1
 210 200 l 1
 186 200 165 187 147 162 c 1
 145 156 l 1
 145 153 156 146 180 138 c 128
 204 130 218 124 221 120 c 128
 224 116 226 107 226 92 c 128
 226 77 219 62 206 49 c 0
 169 12 101 -6 0 -6 c 1
 17 42 l 1
 96 42 150 53 178 75 c 0
 187 82 192 87 192 89 c 2
EndSplineSet
EndChar

StartChar: uni0000
Encoding: 0 0 405
GlifName: uni0000
Width: 497
VWidth: 0
GlyphClass: 2
Flags: HMW
LayerCount: 2
Fore
SplineSet
59 -251 m 1
 59 709 l 1
 438 709 l 1
 438 -251 l 1
 59 -251 l 1
105 -181 m 1
 387 -181 l 1
 387 648 l 1
 105 648 l 1
 105 -181 l 1
EndSplineSet
EndChar

StartChar: _.ghaf.medi
Encoding: 65669 -1 406
GlifName: _.ghaf.medi
Width: 560
VWidth: 0
GlyphClass: 2
Flags: HMW
LayerCount: 2
Fore
SplineSet
-1 465 m 1
 0 465 l 1
 -1 465 l 1
 42 565 l 1
 462 715 l 1
 416 615 l 1
 110 505 l 1
 179 451 240 400 283 341 c 0
 320 293 373 216 419 156 c 0
 455 108 489 100 560 100 c 1
 560 0 l 1
 441 0 382 37 334 116 c 1
 306 15 193 0 111 0 c 2
 -1 0 l 2
 -26 0 -50 24 -50 50 c 0
 -50 76 -26 100 0 100 c 2
 110 100 l 2
 168 100 250 110 275 152 c 1
 277 269 89 400 0 465 c 1
 -1 465 l 1
384 821 m 1
 372 766 l 1
 59 649 l 1
 75 710 l 1
 384 821 l 1
EndSplineSet
Colour: ffda6b
EndChar

StartChar: _.ghaf.init
Encoding: 65670 -1 407
GlifName: _.ghaf.init
Width: 526
VWidth: 0
GlyphClass: 2
Flags: HMW
LayerCount: 2
Fore
SplineSet
0 100 m 2
 110 100 l 2
 168 100 250 110 275 152 c 1
 277 269 89 400 0 465 c 1
 -1 465 l 1
 0 465 l 1
 -1 465 l 1
 42 565 l 1
 462 715 l 1
 416 615 l 1
 110 505 l 1
 236 405 341 317 341 168 c 0
 341 20 206 0 111 0 c 2
 -1 0 l 1
 -1 0 l 1
 -26 0 -50 24 -50 50 c 0
 -50 76 -26 100 0 100 c 2
384 821 m 1
 372 766 l 1
 59 649 l 1
 75 710 l 1
 384 821 l 1
EndSplineSet
Colour: ffda6b
EndChar

StartChar: l.allah.ref1
Encoding: 65671 -1 408
Width: 1300
VWidth: 0
Flags: H
HStem: 0 100<416.807 535.903 655.019 731>
VStem: 560 71<124 315.817>
LayerCount: 2
Fore
SplineSet
460 100 m 0
 524 100 557 132 560 196 c 1
 530 591 l 1
 612 668 l 1
 631 200 l 1
 631 196 l 1
 633 132 666 100 731 100 c 1
 731 0 l 1
 669 0 624 19 596 58 c 1
 567 19 522 0 460 0 c 0
 448 0 437 5 426 16 c 0
 415 27 410 38 410 50 c 0
 411 62 416 73 426 84 c 0
 436 95 447 100 460 100 c 0
EndSplineSet
Comment: "l.allah had both contours and references, so the contours were moved into this glyph, and a reference to it was added in the original."
Colour: ff8080
EndChar
